<?xml version="1.0" encoding="UTF-8" standalone="no"?>
<!-- Generator: Adobe Illustrator 26.0.3, SVG Export Plug-In . SVG Version: 6.00 Build 0)  -->

<svg
   version="1.0"
   id="Layer_1"
   x="0px"
   y="0px"
   viewBox="0 0 72692.955 9460.8243"
   xml:space="preserve"
   width="72692.953"
   height="9460.8242"
   sodipodi:docname="Parul University Logo.svg"
   inkscape:version="1.4.4 (dcaf3e7, 2026-05-05)"
   xmlns:inkscape="http://www.inkscape.org/namespaces/inkscape"
   xmlns:sodipodi="http://sodipodi.sourceforge.net/DTD/sodipodi-0.dtd"
   xmlns="http://www.w3.org/2000/svg"
   xmlns:svg="http://www.w3.org/2000/svg"><sodipodi:namedview
   id="namedview1"
   pagecolor="#ffffff"
   bordercolor="#000000"
   borderopacity="0.25"
   inkscape:showpageshadow="2"
   inkscape:pageopacity="0.0"
   inkscape:pagecheckerboard="0"
   inkscape:deskcolor="#d1d1d1"
   inkscape:zoom="0.01"
   inkscape:cx="36100"
   inkscape:cy="4050"
   inkscape:window-width="1366"
   inkscape:window-height="697"
   inkscape:window-x="-8"
   inkscape:window-y="-8"
   inkscape:window-maximized="1"
   inkscape:current-layer="Layer_1" /><defs
   id="defs42" />
<style
   type="text/css"
   id="style1">
	.st0{fill:#3D4094;}
	.st1{fill:#393185;}
	.st2{fill:#ED3338;}
	.st3{fill:#E31E24;}
	.st4{fill-rule:evenodd;clip-rule:evenodd;fill:#3D4094;}
	.st5{fill-rule:evenodd;clip-rule:evenodd;fill:#E31E24;}
	.st6{fill-rule:evenodd;clip-rule:evenodd;fill:#FFFFFF;}
	.st7{fill:none;}
	.st8{fill-rule:evenodd;clip-rule:evenodd;fill:#FFCC29;}
	.st9{fill:#FFFFFF;}
	.st10{fill:#EE242B;}
	.st11{fill:#1D1D1B;stroke:#000000;stroke-miterlimit:10;}
</style>





















































<g
   id="g1"
   transform="translate(-157654,-15869.666)"><g
     id="g42-8"
     transform="matrix(47.957881,0,0,47.957881,155011.52,7050.2117)"><path
       class="st0"
       d="m 143.3,294.1 c -0.4,-0.4 -0.9,-0.7 -1.5,-0.7 -1.4,2.6 -2.6,5.4 -3.9,8.3 0.3,2.3 0.3,4.7 0,7.1 0.6,0.1 1.2,0.2 1.8,0.4 2.1,0.6 3.8,2 4.8,3.9 1,2.2 1.4,4.6 1.1,6.9 -0.2,2.3 -0.7,4.6 -1.4,6.8 l 16.4,5.3 0.7,0.2 0.1,0.7 c 0.1,1 0.7,1.8 1.5,2.3 v 0 c 0.5,0.4 1.2,0.6 1.8,0.8 v 0 c 0.6,0.1 1.2,0 1.8,-0.2 0.7,-0.3 1.2,-0.9 1.4,-1.6 l 0.3,-0.9 1,0.2 c 1.2,0.4 2.5,0.1 3.5,-0.8 0.3,-0.3 0.5,-0.7 0.6,-1.1 0.1,-0.5 0.1,-0.9 0,-1.4 -0.3,-1.3 -1.3,-2.3 -2.5,-2.7 l -1.1,-0.4 0.3,-1.1 c 0.3,-0.8 0.3,-1.7 -0.1,-2.4 -0.2,-0.4 -0.5,-0.7 -0.9,-0.9 -0.4,-0.2 -0.9,-0.3 -1.4,-0.3 -1.2,0.1 -2.4,0.7 -3.2,1.6 l -0.5,0.6 -0.7,-0.3 -6.8,-2.8 -0.8,-0.4 0.2,-0.9 c 1.2,-6.4 0.7,-11.2 -1.1,-14.5 -1.9,-3.3 -5,-5.2 -9.3,-6.1 l -0.9,-0.2 -0.1,-0.9 c -0.1,-2.3 -0.5,-3.8 -1.1,-4.5 m -0.4,-2.9 c 0.8,0.2 1.6,0.7 2.1,1.4 1,1.5 1.6,3.2 1.6,5 4.6,1.1 8,3.4 10,7.1 2,3.7 2.6,8.6 1.6,15.1 l 5.3,2.2 c 1.1,-1.1 2.6,-1.7 4.2,-1.8 0.9,0 1.8,0.2 2.6,0.6 0.8,0.4 1.4,1.1 1.8,1.9 0.5,1 0.6,2.1 0.4,3.1 1.5,0.8 2.6,2.2 3,3.9 0.2,0.8 0.2,1.6 0,2.4 -0.2,0.8 -0.6,1.5 -1.1,2.1 -1.2,1.2 -2.9,1.8 -4.7,1.6 -0.5,0.9 -1.3,1.7 -2.3,2.1 -1,0.4 -2,0.5 -3,0.3 v 0 c -1,-0.2 -2,-0.6 -2.8,-1.1 v 0 c -1.1,-0.8 -2,-1.9 -2.3,-3.2 l -16.8,-5.4 -1.1,-0.3 0.3,-1.1 c 0.8,-2.4 1.4,-4.8 1.6,-7.3 0.3,-1.9 0,-3.9 -0.8,-5.7 -0.7,-1.4 -2,-2.4 -3.5,-2.8 -0.5,-0.2 -1.1,-0.3 -1.6,-0.4 -0.4,1.6 -1,3.3 -1.7,4.8 -2.5,5 -6,9.4 -10.3,13 l 1,4.1 c 1.2,0 2.4,0.5 3.2,1.4 0.5,0.5 1,1.1 1.3,1.8 0.3,0.7 0.5,1.5 0.5,2.2 0,2 -1.1,3.9 -2.9,4.8 0.4,1.5 0.1,3.2 -0.9,4.4 -0.5,0.7 -1.2,1.2 -2,1.5 -0.8,0.4 -1.6,0.6 -2.4,0.6 -2,0.1 -3.8,-0.9 -5,-2.4 -1.7,0.3 -3.6,-0.1 -5,-1.1 -0.8,-0.6 -1.4,-1.5 -1.8,-2.5 -0.3,-1 -0.5,-2 -0.3,-3 0.2,-1.6 1,-3.1 2.3,-4.1 l -4.5,-12.2 -0.3,-0.7 0.6,-0.5 7.8,-7.4 c -1,-0.2 -2,-0.4 -3,-0.8 -3.5,-1 -6.6,-3.2 -8.7,-6.3 -1.9,-3 -2.7,-6.6 -2.3,-10.2 0.2,-1.7 0.5,-3.4 1,-5.1 l 1.1,-7.2 c -1.2,-0.1 -2.3,-0.5 -3.4,-1.1 -1.4,-0.8 -2.6,-2 -3.3,-3.5 -0.7,-1.5 -1,-3.1 -1,-4.7 0.1,-2 0.6,-3.9 1.5,-5.6 -3.7,-8.5 -4,-14.3 -2.4,-18.4 1.7,-4.3 5.4,-6.7 9.7,-8.2 h 0.1 c 2.4,-0.8 5,-0.9 7.5,-0.4 2.6,0.7 4.9,2.2 6.5,4.3 l -1.7,1.5 c -1.3,-1.7 -3.2,-3 -5.2,-3.6 -2.1,-0.4 -4.3,-0.2 -6.3,0.4 -3.7,1.3 -6.9,3.3 -8.3,6.9 -1.4,3.5 -1,9 2.6,17.2 l 0.2,0.5 -0.3,0.5 c -0.9,1.5 -1.4,3.3 -1.5,5 0,1.3 0.2,2.5 0.8,3.7 0.5,1.1 1.3,2 2.4,2.6 1.1,0.6 2.3,0.9 3.6,0.9 h 1.3 l -0.2,1.3 -1.3,8.5 v 0.2 c -0.5,1.5 -0.8,3.1 -1,4.7 -0.4,3 0.3,6.1 1.9,8.7 1.8,2.6 4.4,4.5 7.4,5.4 1.6,0.5 3.3,0.8 5,1 l 2.5,0.2 -1.8,1.7 -9,8.5 4.5,12.3 0.3,0.9 -0.8,0.5 c -1.1,0.7 -1.8,1.8 -2,3.1 -0.1,0.6 0,1.3 0.2,1.9 0.2,0.6 0.5,1.1 1,1.4 1.2,0.8 2.6,1 3.9,0.6 l 0.8,-0.2 0.4,0.7 c 1,1.8 3.2,2.5 5,1.6 0.4,-0.2 0.8,-0.5 1.1,-0.9 0.6,-0.9 0.7,-2 0.2,-3 l -0.4,-1 0.9,-0.5 c 1.9,-1 2.6,-2.2 2.6,-3.2 0,-0.4 -0.1,-0.9 -0.3,-1.3 -0.2,-0.4 -0.4,-0.8 -0.8,-1.1 -0.5,-0.6 -1.3,-0.9 -2.1,-0.7 l -1.2,0.5 -0.3,-1.3 -1.4,-5.9 V 328 l 0.5,-0.5 c 4.8,-4.1 8.2,-8.4 10.2,-12.7 2,-4.1 2.6,-8.6 1.9,-13.1 l 0.1,-0.6 c 1.9,-4.8 4.2,-9.4 6.9,-13.7 2.2,-3.7 5.1,-6.9 8.4,-9.6 l 0.8,-0.6 0.7,0.8 10.6,12 0.5,0.6 -0.4,0.7 c -0.6,1.2 -0.7,2.5 -0.4,3.8 0.1,0.6 0.4,1.2 0.9,1.7 0.3,0.4 0.8,0.7 1.3,0.8 1,0.1 2,-0.2 2.7,-0.8 l 0.6,-0.3 0.6,0.3 c 1.2,0.8 2.6,1.2 4.1,1.1 0.5,-0.1 1,-0.3 1.4,-0.7 0.3,-0.4 0.6,-0.8 0.6,-1.3 0.2,-0.8 0,-1.6 -0.4,-2.4 l -0.4,-0.6 0.5,-0.6 c 0.9,-1 1.4,-2.4 1.5,-3.7 0,-0.6 -0.2,-1.1 -0.5,-1.6 -0.3,-0.4 -0.7,-0.7 -1.2,-0.9 -0.8,-0.3 -1.7,-0.2 -2.5,0.1 l -0.9,0.3 -0.5,-0.8 -11,-19.3 -0.1,-0.5 c 0,-0.1 0,-0.3 0,-0.4 0,-0.7 -0.1,-1.5 -0.2,-2.2 -0.1,-0.7 -0.2,-1.4 -0.4,-2.1 -0.9,-3.4 -3,-6.5 -5.7,-8.7 l 1.4,-1.8 c 3.2,2.5 5.4,6 6.5,9.9 0.2,0.8 0.4,1.6 0.5,2.4 2.5,-5.1 4.6,-10.4 6.3,-15.9 1.4,-4.6 3.1,-9.1 5.1,-13.4 v 0 l 0.3,-0.7 h 0.7 c 1,0 2,-0.3 2.9,-0.9 0.6,-0.5 1,-1.1 1.3,-1.8 0.3,-0.7 0.3,-1.4 0.1,-2 -0.2,-0.7 -0.6,-1.3 -1.2,-1.7 l -0.8,-0.6 0.4,-0.8 c 0.7,-1.3 0.7,-2.8 0,-4.1 -0.3,-0.4 -0.7,-0.8 -1.2,-1.1 -0.5,-0.3 -1,-0.4 -1.5,-0.5 -1.4,0 -2.7,0.7 -3.3,1.9 l -0.8,1.2 -1,-1 c -0.8,-0.8 -2,-1.1 -3.1,-0.7 v 0 c -0.4,0.2 -0.9,0.4 -1.2,0.8 -0.4,0.3 -0.6,0.8 -0.8,1.2 -0.5,1.2 -0.2,2.8 1.2,4.4 l 0.6,0.6 -0.4,0.7 -7.6,12.3 -1.9,-1.2 7.2,-11.6 c -1.4,-1.7 -1.9,-4 -1.1,-6.1 0.3,-0.8 0.7,-1.5 1.3,-2.1 0.6,-0.6 1.2,-1 2,-1.3 v 0 c 1.5,-0.6 3.1,-0.4 4.5,0.5 2.1,-2.3 5.8,-2.5 8.1,-0.4 0.3,0.3 0.6,0.6 0.9,1 1.1,1.6 1.3,3.7 0.6,5.5 0.6,0.7 1.1,1.5 1.3,2.4 0.3,1.1 0.2,2.3 -0.2,3.4 -0.4,1.1 -1.1,2.1 -2,2.8 -1,0.8 -2.2,1.3 -3.5,1.4 -1.8,4.1 -3.4,8.3 -4.8,12.6 -2.1,6.4 -4.3,13 -7.8,18.6 l 10,17.5 c 1,-0.2 2.1,-0.2 3.1,0.2 0.9,0.3 1.7,0.9 2.3,1.7 0.6,0.9 0.9,1.9 0.9,2.9 -0.1,1.6 -0.6,3.2 -1.6,4.5 0.4,1 0.5,2.1 0.3,3.2 -0.2,0.9 -0.6,1.8 -1.2,2.5 -0.7,0.7 -1.6,1.2 -2.6,1.4 -1.7,0.2 -3.5,-0.2 -5,-1 -1.1,0.7 -2.4,1 -3.7,0.8 -1.1,-0.2 -2,-0.7 -2.7,-1.5 -0.7,-0.8 -1.1,-1.7 -1.4,-2.7 -0.4,-1.5 -0.3,-3.2 0.2,-4.7 l -9.4,-10.6 c -2.7,2.4 -5.1,5.2 -7,8.4 -0.4,0.5 -0.9,1.4 -1.5,2.2 z m -29,-32.4 -2.3,12.1 -2.2,0.1 c -0.4,-1.4 -0.9,-2.9 -1.3,-4.5 -1,-3.2 -2,-6.4 -2.1,-8.6 v -0.2 c 0.1,-2.2 2,-3.9 4.2,-3.7 0.6,0 1.3,0.2 1.8,0.6 v 0 c 1.4,0.9 2.2,2.5 1.9,4.2 z m -3.6,7.1 1.4,-7.4 c 0.1,-0.8 -0.2,-1.6 -0.8,-2 v 0 c -0.2,-0.1 -0.4,-0.2 -0.7,-0.2 -0.3,0 -0.5,0 -0.8,0.1 -0.7,0.2 -1.1,0.8 -1.2,1.5 0.4,2.7 1.1,5.4 2.1,8 z m 16.1,-9.2 v 0 c 0.3,0.8 0.5,1.6 0.8,2.3 0.3,0.7 0.6,1.6 1,2.4 2.2,4.8 4.9,9.3 8.1,13.5 l 0.4,0.5 -0.3,0.6 -11.3,24.2 v 0 c -0.9,1.9 -2.5,3.5 -4.5,4.2 -0.9,0.3 -1.9,0.4 -2.9,0.2 -1,-0.2 -1.9,-0.7 -2.5,-1.5 -1.2,-1.5 -1.7,-3.4 -1.5,-5.2 v -0.2 c 1,-5.6 2.3,-11.1 3.9,-16.5 2.2,-8.3 4.3,-16.1 4,-23.4 l 2.3,-0.1 c 0.4,7.7 -1.8,15.6 -4.1,24.1 -1.4,5.2 -2.9,10.7 -3.8,16.3 -0.2,1.3 0.2,2.5 0.9,3.5 0.3,0.4 0.8,0.7 1.3,0.8 0.6,0.1 1.2,0.1 1.7,-0.1 1.4,-0.5 2.5,-1.6 3.2,-3 v 0 l 11,-23.5 c -3.1,-4.2 -5.8,-8.7 -7.9,-13.4 -0.4,-0.9 -0.7,-1.7 -1,-2.5 -0.3,-0.8 -0.6,-1.7 -0.9,-2.4 v 0 z"
       id="path1-2"
       style="fill:#3d4094" /><path
       class="st1"
       d="m 123.4,349 c -9.4,1.8 -19,2.1 -28.5,1 -8,-0.9 -15.9,-2.6 -23.6,-5 1.3,2 2.7,3.9 4.3,5.7 2.8,3.1 6,5.9 9.5,8.2 l 2,1.3 -2.1,1.1 c -3.8,2 -7.8,3.5 -11.9,4.7 -2,0.5 -3.9,1 -5.9,1.3 14.7,4.5 28.8,6.7 42.3,6.3 14.1,-0.3 28,-3.8 40.5,-10.3 l -1.8,-0.8 c -1.5,-0.7 -2.9,-1.3 -4.4,-2 v 0 c -7,-3.4 -13.9,-7.2 -20.4,-11.5"
       id="path2-4"
       style="fill:#393185" /><path
       class="st1"
       d="m 95.2,347.2 c 9.4,1.1 18.9,0.7 28.2,-1.1 l 0.6,-0.1 0.5,0.3 c 6.6,4.4 13.4,8.3 20.6,11.7 v 0 c 1.4,0.7 2.9,1.3 4.3,2 1.4,0.7 2.9,1.3 4.4,1.9 v 0 l 2.7,1.1 -2.6,1.4 c -13.6,7.6 -28.8,11.7 -44.3,12 -13,0.4 -26.6,-1.6 -40.7,-5.7 -4.8,-1.3 -9.4,-3.2 -13.8,-5.4 5.8,0.1 11.7,-0.6 17.3,-2.1 3.2,-0.9 6.3,-2 9.3,-3.4 -2.9,-2.1 -5.6,-4.6 -8.1,-7.3 -1.4,-1.6 -2.8,-3.4 -4,-5.2 -1.5,-2.4 -2.9,-4.9 -4.2,-7.4 2.4,0.9 4.9,1.7 7.4,2.5 7.2,2.4 14.8,3.9 22.4,4.8 m 28.2,1.8 c -9.4,1.8 -19,2.1 -28.5,1 -8,-0.9 -15.9,-2.6 -23.6,-5 1.3,2 2.7,3.9 4.3,5.7 2.8,3.1 6,5.9 9.5,8.2 l 2,1.3 -2.1,1.1 c -3.8,2 -7.8,3.5 -11.9,4.6 -2,0.5 -3.9,1 -5.9,1.3 14.7,4.5 28.8,6.7 42.3,6.3 14.1,-0.3 28,-3.8 40.5,-10.4 l -1.8,-0.8 c -1.5,-0.7 -2.9,-1.3 -4.4,-2 v 0 c -7,-3.2 -13.9,-7 -20.4,-11.3 z"
       id="path3-5"
       style="fill:#393185" /><path
       class="st1"
       d="m 356.1,349.6 c 9.4,1.8 19,2.1 28.5,1 8,-1 15.9,-2.6 23.6,-5 -1.3,2 -2.7,3.9 -4.3,5.7 -2.8,3.1 -6,5.9 -9.5,8.2 l -2,1.3 2.1,1.1 c 3.8,2 7.8,3.5 11.9,4.6 2,0.5 3.9,1 5.9,1.3 -14.7,4.5 -28.9,6.7 -42.3,6.3 -14.1,-0.3 -28,-3.8 -40.5,-10.3 l 1.8,-0.8 c 1.5,-0.7 2.9,-1.3 4.4,-2 v 0 c 7,-3.2 13.9,-7.1 20.4,-11.4"
       id="path4-5"
       style="fill:#393185" /><path
       class="st1"
       d="m 384.3,347.8 c -9.4,1.1 -18.9,0.7 -28.2,-1.1 l -0.6,-0.1 -0.5,0.3 c -6.5,4.4 -13.4,8.3 -20.5,11.7 v 0 c -1.4,0.7 -2.9,1.3 -4.3,2 -1.4,0.7 -3,1.3 -4.4,1.9 v 0 l -2.7,1.1 2.6,1.4 c 13.6,7.6 28.8,11.7 44.4,12.1 13,0.4 26.6,-1.6 40.7,-5.7 4.8,-1.4 9.4,-3.2 13.8,-5.4 -5.8,0.1 -11.7,-0.6 -17.3,-2.1 -3.2,-0.9 -6.3,-2 -9.3,-3.4 2.9,-2.1 5.6,-4.6 8,-7.3 1.4,-1.6 2.8,-3.4 4,-5.2 1.5,-2.4 3,-4.9 4.2,-7.4 -2.5,0.9 -4.9,1.8 -7.4,2.5 -7.3,2.3 -14.8,3.8 -22.5,4.7 m -28.1,1.8 c 9.4,1.8 19,2.1 28.5,1 8,-1 15.9,-2.6 23.6,-5 -1.3,2 -2.7,3.9 -4.3,5.7 -2.8,3.1 -6,5.9 -9.5,8.2 l -2,1.3 2.1,1.1 c 3.8,2 7.8,3.5 11.9,4.6 2,0.5 3.9,1 5.9,1.3 -14.7,4.5 -28.9,6.7 -42.3,6.3 -14.1,-0.3 -28,-3.8 -40.5,-10.3 l 1.8,-0.8 c 1.5,-0.7 2.9,-1.3 4.4,-2 v 0 c 6.9,-3.2 13.8,-7.1 20.4,-11.4 z"
       id="path5-1"
       style="fill:#393185" /><path
       class="st0"
       d="m 337.3,294.1 c 0.4,-0.4 0.9,-0.7 1.5,-0.7 1.3,2.6 2.6,5.4 3.9,8.3 -0.3,2.3 -0.3,4.7 0,7.1 -0.6,0.1 -1.2,0.2 -1.9,0.4 -2.1,0.6 -3.8,2 -4.8,3.9 -1,2.2 -1.4,4.6 -1.1,6.9 0.2,2.3 0.7,4.6 1.4,6.8 l -16.4,5.3 -0.7,0.2 -0.1,0.7 c -0.1,1 -0.7,1.8 -1.5,2.3 v 0 c -0.5,0.4 -1.2,0.6 -1.8,0.8 v 0 c -0.6,0.1 -1.2,0 -1.8,-0.2 -0.7,-0.3 -1.2,-0.9 -1.4,-1.6 l -0.3,-0.9 -1,0.2 c -1.2,0.4 -2.5,0.1 -3.5,-0.8 -0.3,-0.3 -0.5,-0.7 -0.6,-1.1 -0.1,-0.5 -0.1,-0.9 0,-1.4 0.3,-1.3 1.3,-2.3 2.5,-2.7 l 1.1,-0.4 -0.3,-1.1 c -0.3,-0.8 -0.3,-1.7 0,-2.4 0.2,-0.4 0.5,-0.7 0.9,-0.9 0.4,-0.2 0.9,-0.3 1.4,-0.3 1.2,0.1 2.4,0.7 3.2,1.6 l 0.5,0.6 0.7,-0.3 6.8,-2.8 0.8,-0.4 -0.2,-0.9 c -1.2,-6.4 -0.7,-11.2 1.1,-14.5 1.9,-3.3 5,-5.2 9.3,-6.1 l 0.9,-0.2 v -0.9 c 0.2,-2.2 0.6,-3.7 1.4,-4.5 m 0.2,-2.8 c -0.8,0.2 -1.6,0.7 -2.1,1.4 -1,1.5 -1.6,3.2 -1.6,5 -4.5,1.1 -8,3.4 -10,7.1 -2,3.7 -2.6,8.6 -1.6,15.1 l -5.3,2.2 c -1.1,-1 -2.6,-1.7 -4.1,-1.8 -0.9,0 -1.8,0.2 -2.6,0.6 -0.8,0.4 -1.4,1.1 -1.8,1.9 -0.5,1 -0.6,2.1 -0.4,3.1 -1.6,0.8 -2.7,2.2 -3.1,3.9 -0.2,0.8 -0.2,1.6 0,2.4 0.2,0.8 0.6,1.5 1.1,2.1 1.2,1.2 2.9,1.8 4.7,1.6 0.5,0.9 1.3,1.7 2.3,2.1 1,0.4 2,0.5 3,0.3 v 0 c 1,-0.2 2,-0.6 2.8,-1.1 v 0 c 1.1,-0.8 1.9,-1.9 2.3,-3.2 l 16.9,-5.4 1.1,-0.3 -0.4,-1.1 c -0.8,-2.4 -1.4,-4.8 -1.6,-7.3 -0.3,-1.9 0,-3.9 0.8,-5.7 0.7,-1.4 2,-2.4 3.5,-2.8 0.5,-0.2 1.1,-0.3 1.6,-0.4 0.4,1.6 1,3.3 1.7,4.8 2.5,5 6,9.4 10.3,13 l -1,4.1 c -1.2,0 -2.4,0.5 -3.2,1.4 -0.5,0.5 -1,1.1 -1.3,1.8 -0.3,0.7 -0.5,1.5 -0.5,2.2 0.1,2 1.2,3.8 2.9,4.8 -0.4,1.5 -0.1,3.2 0.9,4.4 0.5,0.7 1.2,1.2 2,1.5 0.8,0.4 1.6,0.6 2.4,0.6 2,0.1 3.8,-0.9 5,-2.4 1.7,0.3 3.6,-0.1 5,-1.1 0.8,-0.6 1.4,-1.5 1.8,-2.5 0.3,-1 0.5,-2 0.3,-3 -0.2,-1.6 -1,-3.1 -2.3,-4.2 l 4.5,-12.2 0.3,-0.7 -0.5,-0.5 -7.7,-7.3 c 1,-0.2 2.1,-0.4 3,-0.8 3.5,-1 6.6,-3.2 8.7,-6.3 1.9,-3 2.7,-6.6 2.3,-10.2 -0.2,-1.7 -0.5,-3.4 -1,-5.1 l -1.1,-7.2 c 1.2,-0.1 2.3,-0.5 3.4,-1.1 1.4,-0.8 2.6,-2.1 3.3,-3.5 0.7,-1.5 1,-3.1 1,-4.7 -0.1,-2 -0.6,-3.9 -1.5,-5.6 3.7,-8.5 4,-14.3 2.4,-18.4 -1.7,-4.3 -5.4,-6.7 -9.7,-8.2 h -0.1 c -2.4,-0.8 -5,-0.9 -7.5,-0.4 -2.5,0.7 -4.8,2.2 -6.4,4.3 l 1.7,1.5 c 1.3,-1.7 3.2,-3 5.2,-3.6 2.1,-0.4 4.3,-0.2 6.3,0.4 3.7,1.3 6.9,3.3 8.3,6.9 1.4,3.5 1,9 -2.6,17.2 l -0.2,0.5 0.3,0.5 c 0.9,1.5 1.4,3.3 1.5,5 0,1.3 -0.2,2.5 -0.8,3.7 -0.5,1.1 -1.3,2 -2.4,2.6 -1.1,0.6 -2.3,0.9 -3.6,0.9 h -1.3 l 0.2,1.3 1.3,8.5 v 0.2 c 0.5,1.5 0.8,3.1 1,4.7 0.4,3 -0.3,6.1 -1.9,8.7 -1.8,2.6 -4.4,4.5 -7.5,5.4 -1.6,0.5 -3.3,0.8 -5,1 l -2.5,0.2 1.8,1.7 9,8.5 -4.5,12.3 -0.3,0.9 0.8,0.5 c 1.1,0.7 1.8,1.8 2,3.1 0.1,0.6 0,1.3 -0.2,1.9 -0.2,0.6 -0.5,1.1 -1,1.4 -1.2,0.8 -2.6,1 -3.9,0.6 l -0.8,-0.2 -0.4,0.7 c -1,1.8 -3.2,2.5 -5,1.6 -0.4,-0.2 -0.8,-0.5 -1.1,-0.9 -0.6,-0.9 -0.7,-2 -0.2,-3 l 0.4,-1 -1,-0.5 c -1.9,-1 -2.6,-2.2 -2.6,-3.2 0,-0.4 0.1,-0.9 0.3,-1.3 0.2,-0.4 0.4,-0.8 0.8,-1.1 0.5,-0.6 1.3,-0.9 2.1,-0.7 l 1.2,0.5 0.3,-1.3 1.4,-5.9 0.2,-0.7 -0.5,-0.5 c -4.8,-4.1 -8.2,-8.4 -10.2,-12.7 -2,-4.1 -2.6,-8.6 -1.9,-13.1 l -0.1,-0.6 c -1.9,-4.8 -4.2,-9.4 -6.9,-13.7 -2.2,-3.7 -5.1,-6.9 -8.4,-9.6 l -0.8,-0.7 -0.9,0.9 -10.6,12 -0.5,0.6 0.4,0.7 c 0.6,1.2 0.7,2.5 0.4,3.8 -0.1,0.6 -0.4,1.2 -0.9,1.7 -0.3,0.4 -0.8,0.7 -1.4,0.8 -1,0.1 -2,-0.2 -2.7,-0.8 l -0.6,-0.4 -0.6,0.3 c -1.2,0.8 -2.6,1.2 -4.1,1.1 -0.5,-0.1 -1,-0.3 -1.4,-0.7 -0.3,-0.4 -0.6,-0.8 -0.6,-1.3 -0.2,-0.8 0,-1.6 0.4,-2.3 l 0.4,-0.7 -0.5,-0.6 c -0.9,-1 -1.4,-2.4 -1.5,-3.7 0,-0.6 0.1,-1.1 0.5,-1.6 0.3,-0.4 0.7,-0.7 1.2,-0.9 0.8,-0.3 1.7,-0.2 2.5,0.1 l 0.9,0.3 0.5,-0.8 11,-19.3 0.1,-0.5 c 0,-0.1 0,-0.3 0,-0.4 0,-0.8 0.1,-1.5 0.2,-2.2 0.1,-0.7 0.2,-1.4 0.4,-2.1 0.9,-3.4 3,-6.5 5.7,-8.7 l -1.4,-1.8 c -3.1,2.5 -5.4,6 -6.5,9.9 -0.2,0.8 -0.4,1.6 -0.5,2.4 -2.5,-5.1 -4.6,-10.5 -6.3,-15.9 -1.4,-4.6 -3.1,-9.1 -5.1,-13.4 v 0 l -0.3,-0.7 h -0.7 c -1,0 -2,-0.3 -2.9,-0.9 -0.6,-0.5 -1,-1.1 -1.3,-1.8 -0.2,-0.7 -0.3,-1.4 -0.1,-2 0.2,-0.7 0.6,-1.3 1.2,-1.7 l 0.7,-0.6 -0.4,-0.8 c -0.7,-1.3 -0.7,-2.8 0,-4.1 0.6,-0.9 1.6,-1.5 2.7,-1.5 1.4,0 2.7,0.7 3.3,1.9 l 0.8,1.2 1,-1 c 0.8,-0.8 2,-1.1 3.1,-0.7 v 0 c 0.4,0.2 0.9,0.4 1.2,0.8 0.3,0.4 0.6,0.8 0.8,1.2 0.5,1.2 0.2,2.8 -1.2,4.4 l -0.6,0.6 0.5,0.7 7.6,12.3 1.9,-1.2 -7.2,-11.6 c 1.4,-1.7 1.8,-4 1.1,-6.1 -0.3,-0.8 -0.7,-1.5 -1.3,-2.1 -0.6,-0.6 -1.2,-1 -2,-1.3 v 0 c -1.5,-0.6 -3.1,-0.4 -4.5,0.5 -1.8,-2 -4.8,-2.5 -7.1,-1.2 -0.8,0.4 -1.4,1 -1.9,1.8 -1.1,1.6 -1.3,3.7 -0.5,5.5 -0.7,0.7 -1.1,1.5 -1.3,2.4 -0.3,1.1 -0.2,2.3 0.2,3.4 0.4,1.1 1.1,2.1 2,2.8 1,0.8 2.2,1.3 3.5,1.4 1.8,4.1 3.4,8.3 4.8,12.6 2.1,6.4 4.3,13 7.8,18.6 l -10,17.5 c -1,-0.2 -2.1,-0.2 -3.1,0.2 -0.9,0.3 -1.7,0.9 -2.3,1.7 -0.6,0.9 -0.9,1.9 -0.9,2.9 0.1,1.6 0.6,3.2 1.6,4.5 -0.4,1 -0.5,2.1 -0.3,3.2 0.2,0.9 0.6,1.8 1.2,2.5 0.7,0.7 1.6,1.2 2.6,1.4 1.7,0.2 3.5,-0.2 5,-1 1.1,0.7 2.4,1 3.7,0.8 1.1,-0.2 2,-0.7 2.7,-1.5 0.7,-0.8 1.1,-1.7 1.4,-2.7 0.4,-1.5 0.3,-3.2 -0.2,-4.7 l 9.4,-10.6 c 2.7,2.4 5.1,5.2 7,8.3 0.4,0.6 1,1.5 1.4,2.4 z m 29.1,-32.4 2.3,12.1 2.2,0.1 c 0.4,-1.4 0.9,-2.9 1.4,-4.5 1,-3.2 2,-6.4 2.1,-8.6 v -0.2 c -0.1,-1.6 -1.2,-3 -2.7,-3.5 -0.5,-0.2 -1.1,-0.3 -1.7,-0.2 -0.6,0.1 -1.1,0.2 -1.6,0.5 v 0 c -1.4,0.9 -2.2,2.5 -1.9,4.2 z m 3.6,7 -1.4,-7.5 c -0.1,-0.8 0.2,-1.5 0.8,-2 v 0 c 0.2,-0.1 0.4,-0.2 0.7,-0.2 0.3,0 0.5,0 0.8,0.1 0.7,0.2 1.1,0.8 1.2,1.5 -0.4,2.7 -1.1,5.4 -2,7.9 z m -16.1,-9.1 v 0 c -0.3,0.8 -0.5,1.6 -0.8,2.3 -0.3,0.7 -0.6,1.6 -1,2.4 -2.2,4.8 -4.9,9.3 -8.1,13.5 l -0.4,0.5 0.3,0.6 11.3,24.2 v 0 c 0.9,1.9 2.5,3.4 4.5,4.1 0.9,0.3 1.9,0.4 2.9,0.2 1,-0.2 1.9,-0.7 2.5,-1.5 1.2,-1.5 1.7,-3.4 1.5,-5.2 v -0.1 0 c -1,-5.8 -2.5,-11.3 -3.9,-16.5 -2.2,-8.3 -4.4,-16.1 -4,-23.4 l -2.3,-0.1 c -0.4,7.7 1.8,15.6 4.1,24.1 1.4,5.2 2.9,10.7 3.8,16.3 0.2,1.3 -0.2,2.5 -0.9,3.5 -0.3,0.4 -0.8,0.7 -1.3,0.8 -0.6,0.1 -1.1,0.1 -1.7,-0.1 -1.4,-0.5 -2.5,-1.6 -3.2,-3 v 0 l -11,-23.5 c 3.1,-4.2 5.8,-8.7 8,-13.4 0.4,-0.8 0.7,-1.7 1,-2.5 0.3,-0.8 0.6,-1.7 0.9,-2.4 v 0 z"
       id="path6-7"
       style="fill:#3d4094" /><path
       class="st2"
       d="m 170.2,343.7 c -6,-2.3 -11.7,-5.3 -17.1,-8.9 -3.7,3.5 -7.9,6.4 -12.6,8.5 -4.4,2 -9,3.6 -13.7,4.8 46.3,29.2 110.4,37.1 167.6,24 11.4,-2.6 21.6,-6.4 32.2,-10.7 9.7,-3.9 14,-7.7 22.8,-13 -7.7,-1.9 -8.8,-5.1 -15.2,-8.8 v 0 c -1.4,-0.8 -2.8,-1.7 -4.2,-2.6 -1.1,-0.7 -2.2,-1.5 -3.2,-2.3 -36.8,22.7 -92.3,25.5 -133.9,16 -7.8,-1.7 -15.4,-4.1 -22.7,-7"
       id="path7-1"
       style="fill:#ed3338" /><path
       class="st3"
       d="m 153.7,331.8 v 0 c 5.5,3.7 11.3,6.8 17.5,9.2 7.2,2.9 14.7,5.2 22.2,6.9 41.3,9.5 96.6,6.7 132.6,-16.1 l 0.8,-0.5 0.8,0.6 v 0 c 1.2,1 2.5,1.9 3.8,2.8 1.3,0.9 2.6,1.7 4,2.5 v 0 c 7.4,4.2 15.4,7.2 23.8,8.9 l 0.5,2.6 -0.6,0.4 v 0 c -9.7,6 -20,11.2 -30.6,15.5 -10.9,4.3 -22.1,7.8 -33.5,10.4 -59,13.5 -125.4,4.9 -172.5,-26.2 l -2.7,-1.8 3.2,-0.8 c 5.6,-1.2 11.1,-3 16.3,-5.3 4.7,-2.1 9,-5 12.5,-8.7 l 0.8,-0.9 z"
       id="path8-1"
       style="fill:#e31e24" /><path
       class="st4"
       d="m 135.7,204.7 c -1.7,0.3 -3.3,1.1 -4.6,2.2 -2.9,-1.6 -6.3,-1.2 -7.1,2.1 -0.5,2.4 1.4,4.7 5,5.3 l 0.1,1.2 c -2.6,1.6 -4.6,4.1 -5.7,7 -0.7,1.5 0,3.5 1.8,4.9 -0.2,2.1 0.3,5.3 3.7,5.8 0.2,1.9 1.8,3.3 3.6,3.4 1.7,-1.4 1,-9.4 2.2,-11.1 l 14.6,4.3 c 2.3,1 2.6,2.1 0.4,2.3 l -8.1,-0.7 c 3.2,1.4 8.4,1.1 11.7,2.8 1.3,0.5 4.2,4 1.8,4 -4.2,-1 -9.1,-1.3 -12.4,-2.7 3.7,2.8 10.6,2.5 13.4,5.5 1.3,1 2.7,4.9 0.3,3.8 -2.8,-2.5 -9.3,-2.6 -13.8,-5.4 3.5,4 11.2,4.3 13.7,7.6 0.8,1 1.5,2.2 -0.4,2.4 -1.9,0.1 -4.6,2.7 -6.9,4 -5.4,2.3 -7.8,-5.7 -9.5,-8.9 -0.1,2.4 2,6.1 2.6,9.2 0.9,3.6 -2.2,3.9 -5.3,3.5 1.5,-5.4 -0.7,-9 -1.2,-13.1 -1,4.6 2.8,13 -1.9,13.8 -1.3,0.1 -2,-0.4 -1.4,-1.9 0.9,-3.5 -0.4,-7.8 -0.2,-11.7 -1.3,0.9 -0.4,7.6 -1.1,11.3 -0.3,2 -4.3,2.5 -3.7,0.3 1.9,-4 0.3,-7.9 0.7,-12 -1.3,4 -0.6,11 -2.8,12.4 -2.4,1.4 -3.2,0.2 -2.7,-0.7 2.1,-5.4 1.2,-9.4 1.8,-14 -1.9,5.2 -0.4,12.1 -5.6,15.5 -3.1,2 -5.6,1.2 -3.3,-0.5 3.6,-2.6 5.7,-6.9 5.5,-11.4 l 1.4,-10.3 -2,7.4 c -0.7,2.4 -1.8,0 -1.9,-1.1 -0.4,-2.9 0.6,-6.6 1.8,-10.9 -1.4,2.1 -2.4,4.4 -3.1,6.9 -1.4,1.3 -3.1,-1.4 -1.7,-3.9 1,-2.6 2.3,-5.1 3.8,-7.4 -1.8,1.9 -3.4,4 -4.8,6.2 -1.8,-0.2 -0.6,-2.7 -0.2,-3.6 1.2,-2.3 2.8,-4.4 4.6,-6.2 l -5,4.3 c -1.5,-0.3 -0.6,-2 -0.1,-2.8 1.3,-2.2 3.1,-4.1 5.1,-5.7 -2,0.9 -3.7,2.2 -5.2,3.8 -1,0.5 -0.9,-0.8 -0.6,-1.8 0.8,-2.8 3.6,-4.7 5.8,-6.4 l -3.5,1.6 c -1,-0.2 -0.6,-0.9 -0.3,-1.5 1.6,-2.8 4,-5.2 6.8,-6.7 2.9,-1.6 6.1,-2.7 9.4,-3.3 2.1,-0.2 4.2,-0.1 4.5,0.9 m 2.9,-0.4 3.7,0.7 1.8,2.1 c 2.8,0.7 5.4,1.3 8.5,1.8 0.8,0.1 1.3,0.6 1.1,1.8 -0.1,1.8 -0.4,3.6 -1,5.4 -0.7,1.2 -2,1.5 -3.7,1.2 -4.2,-1.2 -7.8,-1.9 -7.9,0.6 l 10.2,0.2 c 1.8,0.1 3.6,-0.5 5,-1.6 -0.4,1.9 -1.6,3.1 -4.6,2.9 l -11.3,-0.6 c 0.1,1.1 0.8,2.1 2.6,2.4 2.1,-0.1 4.2,-0.3 6.3,-0.8 1,-0.2 1.6,0.1 1.7,1.2 0,2 -1.3,3.7 -3.1,4.3 l -3.1,0.6 c 3.8,1.1 7.1,2.6 8.7,5.4 3.1,1.6 5,4.9 4.6,8.4 2.1,2.1 2.6,4.4 1.6,6.8 0.9,1 1,2.6 0.2,3.7 -6,0.3 -12.8,8 -15.6,5 -1.9,3.4 -4.8,4.1 -8.3,2.9 -2.8,1.6 -4.7,1.5 -5.7,-0.6 -1.7,1.5 -3.6,1.6 -5.6,0.2 -0.8,0.9 -2.2,1 -3.1,0.2 -0.4,-0.4 -0.7,-0.9 -0.8,-1.5 -2.8,3.5 -6,3.5 -9.4,1.1 6.1,-3.9 7.5,-8.2 7.4,-11.5 -2,-1.7 -3,-4.4 -2.4,-7 -2.6,-0.2 -3.8,-1.7 -3.5,-4.6 -2.1,-2.1 -1.5,-3.9 -0.8,-5.8 -1.2,-0.6 -1.6,-2.8 -0.9,-4.1 -1.2,-2.1 -1.2,-4.6 0.7,-7.5 0.1,-5.5 6.7,-11.7 12.8,-13.6 7,-2.2 12.2,-2.7 13.9,0.3 z m -6.6,19.5 c -4.1,5.2 -1.4,13 -0.2,10.6 0.6,-4.4 0.7,-7.8 1.5,-9.5 -0.4,-0.3 -0.9,-0.7 -1.3,-1.1 z m -1.8,-3.1 c -4.9,4.5 -3.5,12.1 -1.8,10 0.2,-2.8 1.3,-5.4 3,-7.6 -0.5,-0.8 -0.9,-1.6 -1.2,-2.4 z m -0.8,-4.4 c -4.9,3.3 -5.4,10.2 -3.3,8.5 0.9,-2 2.2,-3.7 3.8,-5.1 -0.4,-1 -0.5,-2.2 -0.5,-3.4 z m 20.7,-1.9 c 1.5,0.2 0.8,1.4 -1,1.2 -2.6,-0.2 -5.3,-1.5 -7.7,-0.7 -2.1,1.1 -2.8,3.7 -1.7,5.7 0.2,0.4 0.4,0.7 0.7,1 1.3,0.9 3.8,1 7,0.7 1.5,-0.4 1.9,0.5 1.1,1.2 -2.3,1 -4.8,1.1 -7.1,0.3 -1.5,-0.3 -2.7,-1.4 -3.1,-2.9 -1,-2.8 -0.4,-5.9 2.7,-6.9 2.3,-0.6 5.6,-0.2 9.1,0.4 z m -0.7,-2.2 c -0.3,-0.9 -0.2,-1.6 0.4,-1.9 h 1.3 c 1,0.6 0.9,1.4 0.2,2.5 -0.7,0.1 -1.4,-0.1 -1.9,-0.6 z M 135,206.3 c 1.9,-0.4 3.9,-0.3 5.8,0.4 1.7,0.4 0.7,3 -1.2,3.2 -1.9,0.2 -3.7,-0.8 -5.4,-1.6 -2.4,-0.9 -1.1,-1.8 0.8,-2 z m 2.1,5 c 1.5,0.8 1.8,0.2 1,-0.4 l -8.3,-3.2 c -1.8,-0.5 -4.7,0.7 -3.7,3.6 0.8,1.8 3.4,2.3 6.1,1.8 -2.7,3.3 -2.1,10 5.2,11.3 1.5,-1.1 -0.1,-1.9 -0.1,-2.8 -1.3,-4.1 0.7,-8 3.9,-8.4 l 5.1,-0.3 c 1.1,0.1 1.9,-0.3 2.1,-1.3 0.4,-1.5 0.1,-1.9 -0.6,-1.9 l -2.6,-0.6 c -2,-0.3 -2.7,1.4 -4.2,2 -0.6,1.2 -1.4,2.1 -2.5,1.8 -1.3,0 -1.7,-1 -1.4,-1.6 z"
       id="path9-5"
       style="clip-rule:evenodd;fill:#3d4094;fill-rule:evenodd" /><path
       class="st0"
       d="m 196.8,189.9 h -1.3 v 7.5 l -2,-1.1 v -1.4 h -0.4 -0.4 c -0.8,0 -1.6,-0.3 -2.2,-0.9 -0.7,-0.6 -1.3,-1.5 -1.6,-2.4 0.4,-0.1 0.8,-0.2 1.2,-0.5 0.3,-0.2 0.4,-0.5 0.4,-0.8 0,-0.1 0,-0.2 0,-0.2 0,-0.1 -0.1,-0.2 -0.1,-0.2 h -1.7 v -1.4 h 8.2 z m -3.3,2.4 v -2.4 h -1.8 c 0.4,0.4 0.5,0.9 0.5,1.4 0,0.5 -0.2,0.9 -0.6,1.2 -0.4,0.4 -0.9,0.6 -1.4,0.7 0.3,0.2 0.6,0.3 0.9,0.4 0.4,0 0.9,-0.1 1.3,-0.4 0.5,-0.1 0.9,-0.5 1.1,-0.9 z m 7.6,-2.4 h -1.3 v 7.5 l -2,-1.1 v -6.4 h -1.1 v -1.4 h 1.9 l -1.6,-2.1 c -0.3,-0.3 -0.7,-0.5 -1.1,-0.5 -0.2,0 -0.5,0 -0.7,0.1 -0.2,0 -0.4,0.1 -0.6,0.2 l -1.2,-2.1 c 0.8,0.1 1.5,0.3 2.3,0.5 0.4,0.1 0.8,0.4 1.1,0.7 l 2.2,3.2 h 2.1 z m 8.7,0 h -1.4 v 7.5 l -2,-1.1 v -6.4 h -1.7 c 0.1,0.5 0.2,0.9 0.2,1.4 0,0.4 0.1,0.7 0.1,1.1 0,0.6 -0.1,1.3 -0.3,1.9 -0.2,0.5 -0.5,0.8 -0.8,0.8 -0.7,0 -1.3,-0.3 -1.8,-0.8 -0.5,-0.6 -0.8,-1.3 -0.8,-2 0,-0.2 0.1,-0.3 0.2,-0.5 0.1,-0.1 0.2,-0.2 0.4,-0.2 0.2,0 0.5,0 0.7,0.1 l 0.2,-1.8 H 201 v -1.4 h 8.8 z m 4.1,1.7 -1.5,1.7 -1.5,-1.7 1.5,-1.7 z m 0,4.1 -1.5,1.7 -1.5,-1.7 1.5,-1.7 z m 14.8,-5.8 h -3.9 v 1.6 c 0.9,0 1.8,0.4 2.3,1.2 0.6,0.8 1,1.9 0.9,2.9 0,0.2 0,0.4 0,0.6 0,0.2 -0.1,0.5 -0.1,0.8 l -2.1,-1.2 c 0.5,-0.8 0.9,-1.6 1,-2.6 0,-0.2 -0.1,-0.2 -0.2,-0.2 -0.7,0.1 -1.2,0.5 -1.6,1.1 v 3.4 l -2,-1.1 v -1.2 c -0.9,0 -1.9,-0.3 -2.6,-0.8 -0.7,-0.5 -1.1,-1.2 -1.1,-2 0,-0.4 0.2,-0.8 0.6,-1 0.4,-0.3 0.9,-0.4 1.4,-0.4 0.3,0 0.6,0.1 0.9,0.2 l 0.9,0.9 v -2 H 219 v -1.4 h 9.9 z m -5.9,2.9 v -0.5 c -0.6,0 -1.2,0.1 -1.8,0.4 -0.4,0.2 -0.7,0.6 -0.8,1 0.1,0.2 0.2,0.3 0.4,0.2 0.3,0 0.6,-0.1 0.9,-0.3 0.5,-0.2 0.9,-0.5 1.3,-0.8 z m 14.3,-2.9 h -1.3 v 7.5 l -2,-1.1 v -2.1 h -1.6 v 0.9 c 0,0.2 0,0.4 -0.1,0.6 -0.1,0.1 -0.2,0.2 -0.4,0.2 -1.3,-0.4 -2.4,-1.4 -2.7,-2.8 0,-0.2 0.1,-0.3 0.2,-0.4 0.1,-0.1 0.3,-0.2 0.4,-0.1 h 0.7 v -2.7 h -1.7 v -1.4 h 8.5 z m -3.3,2.6 v -2.7 h -1.6 v 2.7 z m 3.4,-7 -0.4,0.4 c -0.1,-0.1 -0.2,-0.3 -0.4,-0.3 -0.2,-0.1 -0.5,-0.1 -0.7,-0.1 -0.3,0 -0.6,0.1 -0.8,0.3 -0.2,0.2 -0.3,0.5 -0.3,0.8 0.1,0.7 0.3,1.3 0.8,1.8 h -0.5 c -1,-0.7 -1.5,-1.8 -1.6,-3 0,-0.4 0.1,-0.7 0.4,-1 0.3,-0.3 0.6,-0.4 1,-0.4 0.5,0 1,0.1 1.4,0.4 0.5,0.3 0.9,0.7 1.1,1.1 z m 9,4.3 h -1.4 v 7.5 l -1.9,-1.1 V 194 c -0.7,-0.2 -1.3,-0.5 -1.8,-1 -0.1,0.4 -0.2,0.8 -0.5,1.1 -0.2,0.3 -0.6,0.6 -0.9,0.7 l 2.1,2.5 -0.7,0.2 -2.9,-3.8 c -0.4,-0.5 -0.7,-1.2 -0.9,-1.8 0,-0.2 0.1,-0.3 0.1,-0.4 0.1,-0.1 0.2,-0.2 0.4,-0.2 0.5,0 0.9,0.3 1.1,0.7 0.2,-0.3 0.4,-0.8 0.4,-1.2 0,-0.3 -0.1,-0.6 -0.2,-1 H 237 v -1.4 h 9.2 z m -3.3,2 v -2 h -2.2 c 0.3,0.8 0.5,1.7 0.5,2.5 h 0.4 c 0.3,0 0.5,0 0.8,-0.1 0.1,-0.1 0.4,-0.2 0.5,-0.4 z m 3.6,7.2 c 0,0.6 -0.3,1.2 -0.8,1.5 -0.5,0.4 -1.2,0.6 -1.9,0.6 -1,0 -1.9,-0.3 -2.8,-0.8 -1,-0.6 -1.9,-1.3 -2.6,-2.2 l 0.4,-0.3 c 0.5,0.6 1.1,1.1 1.9,1.5 0.7,0.3 1.4,0.5 2.2,0.5 0.6,0 1.3,-0.2 1.8,-0.5 0.5,-0.3 0.7,-0.8 0.7,-1.4 0,-0.1 -0.1,-0.1 -0.3,-0.1 -0.6,0.2 -1.1,0.6 -1.5,1 l -1.7,-1.2 c 0.5,-0.5 1.2,-0.9 2,-0.9 0.7,0 1.4,0.2 1.9,0.7 0.5,0.4 0.8,1 0.7,1.6 z m 13.5,-9.1 h -3.9 v 1.6 c 0.9,0 1.8,0.4 2.3,1.2 0.6,0.8 1,1.9 0.9,2.9 0,0.2 0,0.4 -0.1,0.6 0,0.2 -0.1,0.5 -0.1,0.8 l -2.1,-1.2 c 0.5,-0.8 0.9,-1.6 1,-2.6 0,-0.2 -0.1,-0.2 -0.3,-0.2 -0.7,0.1 -1.2,0.5 -1.6,1.1 v 3.4 l -2,-1.1 v -1.2 c -0.9,0 -1.9,-0.3 -2.6,-0.8 -0.7,-0.5 -1.1,-1.2 -1.1,-2 0,-0.4 0.2,-0.8 0.5,-1 0.4,-0.3 0.9,-0.4 1.4,-0.4 0.3,0 0.6,0.1 0.9,0.2 l 0.9,0.9 v -2 H 250 v -1.4 h 9.9 z m -5.9,2.9 v -0.5 c -0.6,0 -1.2,0.1 -1.8,0.4 -0.5,0.3 -0.8,0.6 -0.8,1 0.1,0.2 0.2,0.3 0.4,0.2 0.3,0 0.6,-0.1 0.9,-0.3 0.5,-0.3 1,-0.5 1.3,-0.8 z m 10.2,-2.9 H 263 v 7.5 l -2,-1.1 v -6.4 h -1.1 v -1.4 h 1.4 l -1.5,-1.1 c -0.2,-0.2 -0.5,-0.3 -0.7,-0.4 -0.4,0.2 -0.7,0.4 -1,0.7 h -0.9 l -1.6,-1.8 h 0.7 c 0.6,0 1.3,0 1.9,0.1 0.4,0 0.8,0.2 1.1,0.4 l 2.6,2 h 0.3 l -2,-2.7 c -0.1,-0.1 -0.2,-0.2 -0.3,-0.2 -0.2,0 -0.4,0.1 -0.5,0.2 l -1.3,-0.3 -1.3,-1.5 h 1.7 c 0.3,0 0.6,0.1 0.9,0.2 0.3,0.1 0.5,0.3 0.7,0.5 l 2.7,3.8 h 1.6 z m 9.5,0 h -1.3 v 7.5 l -2,-1.1 v -6.4 h -2.3 v 1.6 c 0.4,0.2 0.6,0.5 0.9,0.9 0.2,0.3 0.3,0.7 0.3,1.1 0,0.5 -0.2,1 -0.5,1.4 -0.4,0.4 -0.8,0.8 -1.4,1 l 1.4,2.5 c -0.2,0.1 -0.3,0.1 -0.5,0.1 -0.2,0 -0.3,-0.1 -0.4,-0.2 -0.1,-0.1 -0.2,-0.3 -0.3,-0.5 l -0.6,-1.9 c -0.6,-0.1 -1.1,-0.3 -1.6,-0.6 -0.4,-0.2 -0.6,-0.6 -0.6,-1 0,-0.2 0.1,-0.5 0.2,-0.6 0.1,-0.2 0.4,-0.3 0.6,-0.3 0.1,0 0.2,0.1 0.3,0.1 0.1,0.1 0.4,0.3 0.6,0.5 0.4,-0.1 0.7,-0.4 1,-0.7 0.3,-0.3 0.4,-0.7 0.4,-1.1 0,-0.2 -0.1,-0.3 -0.4,-0.3 -0.7,0.1 -1.4,0.4 -2,0.7 l -1.2,-1.5 0.8,-0.1 c 0.3,-0.1 0.6,-0.1 0.9,-0.1 V 190 h -2 v -1.3 h 9.6 z m 10.4,0 h -1.6 v 7.5 l -1.9,-1.1 v -3.4 h -0.1 c -0.2,0 -0.4,0.2 -0.6,0.6 -0.2,0.4 -0.4,0.9 -0.5,1.4 l -2,-0.5 c 0.1,-0.3 0.2,-0.6 0.3,-0.9 0.1,-0.2 0.2,-0.4 0.4,-0.6 -0.1,-0.1 -0.2,-0.2 -0.4,-0.2 -0.4,0 -0.8,0.1 -1.1,0.4 -0.3,0.2 -0.5,0.6 -0.4,1 0,0.5 0.2,1 0.5,1.5 0.4,0.6 0.9,1.1 1.4,1.5 l -0.4,0.4 c -1,-0.7 -1.9,-1.4 -2.6,-2.4 -0.5,-0.6 -0.9,-1.3 -0.9,-2.1 0,-0.5 0.2,-1 0.6,-1.3 0.4,-0.4 0.9,-0.5 1.5,-0.5 0.4,0 0.8,0.1 1.1,0.3 0.4,0.2 0.7,0.6 1,0.9 0.4,-0.8 1.3,-1.3 2.2,-1.3 v -1.2 h -6.9 v -1.4 h 10.4 z m 8.2,0 H 291 v 7.5 l -2,-1.1 v -2.1 h -1.5 v 0.9 c 0,0.2 0,0.4 -0.1,0.6 -0.1,0.1 -0.2,0.2 -0.4,0.2 -1.3,-0.4 -2.4,-1.4 -2.8,-2.8 0,-0.2 0.1,-0.3 0.2,-0.4 0.1,-0.1 0.3,-0.2 0.4,-0.1 h 0.7 v -2.7 h -1.6 v -1.4 h 8.5 z m -3.3,2.6 v -2.7 h -1.5 v 2.7 z m 5.5,8.6 -0.4,0.4 -3.5,-2.8 -1.3,0.7 -1.4,-1.8 2,-0.2 z"
       id="path10-2"
       style="fill:#3d4094" /><path
       class="st4"
       d="m 344.9,204.7 c 1.7,0.3 3.3,1.1 4.7,2.2 2.8,-1.6 6.3,-1.2 7.1,2.1 0.5,2.4 -1.4,4.7 -5,5.3 l -0.1,1.2 c 2.6,1.6 4.6,4.1 5.6,7 0.7,1.5 0,3.5 -1.8,4.9 0.2,2.1 -0.3,5.3 -3.7,5.8 -0.2,1.9 -1.8,3.3 -3.6,3.4 -1.7,-1.4 -1,-9.4 -2.2,-11.1 l -14.6,4.3 c -2.3,1 -2.6,2.1 -0.4,2.3 l 8.1,-0.7 c -3.2,1.4 -8.5,1.1 -11.7,2.8 -1.3,0.5 -4.2,4 -1.8,4 4.2,-1 9.1,-1.3 12.4,-2.7 -3.7,2.8 -10.6,2.5 -13.4,5.5 -1.3,1 -2.7,4.9 -0.3,3.8 2.8,-2.5 9.3,-2.6 13.8,-5.4 -3.5,4 -11.2,4.3 -13.7,7.6 -0.8,1 -1.5,2.2 0.4,2.4 1.9,0.1 4.6,2.7 6.9,4 5.3,2.3 7.8,-5.7 9.5,-8.9 0.1,2.4 -2,6.1 -2.6,9.2 -0.9,3.6 2.2,3.9 5.3,3.5 -1.5,-5.4 0.7,-9 1.2,-13.1 1,4.6 -2.8,13 1.9,13.8 1.3,0.1 2,-0.4 1.4,-1.9 -0.9,-3.5 0.4,-7.8 0.2,-11.7 1.3,0.9 0.4,7.6 1.1,11.3 0.3,2 4.3,2.5 3.7,0.3 -1.9,-4 -0.2,-7.9 -0.7,-12 1.3,4 0.6,11 2.8,12.4 2.4,1.4 3.2,0.2 2.7,-0.7 -2.1,-5.4 -1.2,-9.4 -1.8,-14 1.9,5.2 0.4,12.1 5.6,15.5 3.1,2 5.6,1.2 3.3,-0.5 -3.6,-2.6 -5.7,-6.9 -5.5,-11.4 l -1.4,-10.3 2,7.4 c 0.7,2.4 1.8,0 1.9,-1.1 0.4,-2.9 -0.6,-6.6 -1.8,-10.9 1.4,2.1 2.5,4.4 3.1,6.9 1.4,1.3 3.1,-1.4 1.7,-3.9 -1,-2.6 -2.3,-5.1 -3.8,-7.4 1.8,1.9 3.4,4 4.8,6.2 1.8,-0.2 0.6,-2.7 0.1,-3.6 -1.2,-2.3 -2.8,-4.4 -4.6,-6.2 l 5,4.3 c 1.5,-0.3 0.6,-2 0.1,-2.8 -1.3,-2.2 -3.1,-4.1 -5.1,-5.7 2,0.9 3.7,2.2 5.2,3.8 1,0.5 0.9,-0.8 0.6,-1.8 -0.8,-2.8 -3.6,-4.7 -5.8,-6.4 l 3.4,1.6 c 1,-0.2 0.6,-0.9 0.3,-1.5 -1.6,-2.8 -4,-5.2 -6.9,-6.7 -2.9,-1.6 -6.1,-2.7 -9.4,-3.3 -1.8,-0.2 -3.9,-0.1 -4.2,0.9 m -2.9,-0.4 -3.7,0.7 -1.8,2.1 c -2.8,0.7 -5.5,1.3 -8.5,1.8 -0.8,0.1 -1.3,0.6 -1.1,1.8 0,1.8 0.4,3.6 1,5.4 0.7,1.2 2,1.5 3.7,1.2 4.2,-1.2 7.8,-1.9 7.9,0.6 l -10.2,0.2 c -1.8,0.1 -3.6,-0.5 -5,-1.6 0.4,1.9 1.6,3.1 4.6,2.9 l 11.2,-0.6 c -0.1,1.1 -0.8,2.1 -2.6,2.4 -2.1,-0.1 -4.2,-0.3 -6.3,-0.8 -1,-0.2 -1.6,0.1 -1.7,1.2 0,2 1.3,3.7 3.1,4.3 l 3.1,0.6 c -3.8,1.1 -7.1,2.6 -8.6,5.4 -3.1,1.6 -5,4.9 -4.6,8.4 -2.1,2.1 -2.6,4.4 -1.6,6.8 -0.9,1 -1,2.6 -0.2,3.7 6,0.3 12.9,8 15.6,5 1.9,3.4 4.8,4.1 8.3,2.9 2.8,1.7 4.7,1.5 5.7,-0.6 1.7,1.5 3.6,1.6 5.6,0.2 0.8,0.9 2.1,1 3.1,0.3 0.4,-0.4 0.7,-0.9 0.8,-1.5 2.8,3.5 6,3.5 9.4,1.1 -6.1,-3.9 -7.5,-8.2 -7.5,-11.5 2.1,-1.7 3,-4.4 2.4,-7 2.6,-0.2 3.8,-1.7 3.5,-4.6 2.1,-2.1 1.5,-3.9 0.8,-5.8 1.2,-0.6 1.6,-2.8 0.9,-4.1 1.2,-2.1 1.2,-4.6 -0.6,-7.5 -0.1,-5.5 -6.7,-11.7 -12.8,-13.6 -7.1,-2.3 -12.3,-2.8 -13.9,0.2 z m 6.5,19.5 c 4,5.2 1.4,13 0.1,10.6 -0.6,-4.4 -0.7,-7.8 -1.5,-9.5 0.6,-0.3 1,-0.7 1.4,-1.1 z m 1.8,-3.1 c 4.9,4.5 3.5,12.1 1.8,10 -0.2,-2.8 -1.3,-5.4 -3,-7.6 0.5,-0.8 1,-1.6 1.2,-2.4 z m 0.9,-4.4 c 4.9,3.3 5.4,10.2 3.3,8.5 -0.9,-1.9 -2.2,-3.7 -3.8,-5.1 0.3,-1 0.5,-2.2 0.5,-3.4 z m -20.8,-1.9 c -1.5,0.2 -0.8,1.4 1,1.2 2.6,-0.2 5.3,-1.5 7.7,-0.7 2.1,1.1 2.8,3.7 1.7,5.7 -0.2,0.4 -0.4,0.7 -0.7,1 -1.3,0.9 -3.9,1 -7,0.7 -1.5,-0.4 -1.9,0.5 -1.1,1.2 2.3,1 4.8,1.1 7.1,0.3 1.5,-0.3 2.6,-1.4 3.1,-2.9 1,-2.8 0.4,-5.9 -2.7,-6.9 -2.3,-0.6 -5.6,-0.2 -9.1,0.4 z m 0.8,-2.2 c 0.3,-0.9 0.2,-1.6 -0.4,-1.9 h -1.3 c -1,0.6 -0.9,1.4 -0.2,2.5 0.7,0.1 1.4,-0.1 1.9,-0.6 z m 14.3,-5.9 c -1.9,-0.4 -4,-0.3 -5.8,0.4 -1.6,0.4 -0.7,3 1.3,3.2 2,0.2 3.7,-0.8 5.4,-1.6 2.3,-0.9 1,-1.8 -0.9,-2 z m -2.1,5 c -1.5,0.8 -1.8,0.2 -1,-0.4 l 8.3,-3.2 c 1.8,-0.5 4.7,0.7 3.7,3.6 -0.8,1.8 -3.4,2.3 -6.1,1.8 2.7,3.3 2.1,10 -5.1,11.3 -1.5,-1.1 0.1,-1.9 0.1,-2.8 1.3,-4.1 -0.7,-8 -3.9,-8.4 l -5.1,-0.3 c -1.1,0.1 -1.9,-0.3 -2.1,-1.3 -0.4,-1.5 -0.1,-1.9 0.6,-1.9 l 2.6,-0.6 c 2,-0.3 2.7,1.4 4.2,2 0.6,1.2 1.4,2.1 2.5,1.8 1.2,0 1.6,-1 1.3,-1.6 z"
       id="path11-7"
       style="clip-rule:evenodd;fill:#3d4094;fill-rule:evenodd" /><path
       class="st5"
       d="m 240.1,267.1 h 53.4 v -50.8 c -20.2,9.1 -39.6,4.6 -53.3,-4.1 z"
       id="path12-6"
       style="clip-rule:evenodd;fill:#e31e24;fill-rule:evenodd" /><path
       class="st6"
       d="m 294.5,261.4 h -0.5 -0.4 l -0.2,-0.1 -0.1,-0.1 -0.1,-0.2 -0.3,-0.3 -0.4,-0.1 h -0.3 -0.2 l -0.7,-0.1 -0.7,-0.2 -3.2,-0.2 -0.2,0.1 H 287 l -0.2,-0.2 -0.1,-0.1 -0.2,0.2 -0.6,0.3 -0.5,0.1 -0.3,-0.2 -0.3,-0.1 h -0.3 -0.3 l -0.3,-0.2 -0.1,-0.2 -2.3,-0.3 -0.4,0.1 -0.8,0.2 -0.6,-0.1 -0.6,-0.5 -0.9,-0.3 -0.9,0.4 -0.6,0.1 -0.6,-0.5 -0.8,-0.4 -1.1,0.5 h -0.7 l -0.2,-0.7 -0.5,-0.1 -0.6,0.4 h -0.6 l -0.2,-0.2 -3.2,0.1 -0.4,0.2 h -0.4 l -0.4,-0.2 h -0.5 l -3.5,0.4 h -0.4 l -0.5,0.2 -0.5,0.6 -0.4,0.3 -0.5,-0.2 -0.7,0.3 -0.5,0.7 -0.4,0.1 h -0.6 -0.5 l -0.3,0.3 -0.3,0.1 -2.1,-0.2 -1,0.1 h -0.4 l -0.4,0.3 -0.3,0.1 -0.3,-0.1 h -0.3 l -0.3,0.3 h -0.4 l -0.4,-0.2 -2,0.5 -0.2,0.1 -0.5,0.2 -0.7,0.3 -0.9,0.3 -2.2,0.6 -2.1,0.9 -1.6,0.9 -1.7,0.4 -1.7,0.9 -1.9,1.6 c 18.5,7.1 38.1,7.3 58.4,3.2"
       id="path13-1"
       style="clip-rule:evenodd;fill:#ffffff;fill-rule:evenodd" /><path
       id="polygon13-4"
       style="clip-rule:evenodd;fill:#ffffff;fill-rule:evenodd"
       class="st6"
       d="m 270.1,257.1 -0.1,0.3 -0.2,0.4 -0.4,0.2 -0.5,0.1 -0.4,0.3 -0.1,0.3 3.1,-0.1 0.2,-0.1 0.2,-0.1 0.2,-0.7 -0.3,-0.7 -0.3,-0.2 0.1,0.1 -0.1,-0.1 v -0.1 l 0.2,-0.1 0.3,-0.1 -1.1,-1.8 -1.3,-2.3 -2.2,0.8 1.1,2.1 1.2,2 0.2,-0.2 z" /><path
       id="polygon14-2"
       style="clip-rule:evenodd;fill:#ffffff;fill-rule:evenodd"
       class="st6"
       d="m 264.6,257.6 -0.1,0.2 -0.1,0.1 -0.4,0.2 -0.7,0.3 -0.2,0.4 v 0.2 l 3.6,-0.4 -0.1,-0.2 -0.4,-0.5 v -0.2 l 0.1,-0.1 h 0.2 0.1 l -0.2,-2.1 -0.2,-2.1 -2.4,0.1 0.2,2.1 0.1,2.1 h 0.3 z" /><path
       class="st6"
       d="m 266,224.4 c -1,-0.8 -2.4,-0.9 -3.5,-0.3 l -0.2,0.2 -0.2,0.2 v 0.2 l 0.1,0.2 v 0.2 l -0.1,0.3 0.1,0.3 -0.1,0.3 -0.2,0.3 0.1,0.3 h 0.1 0.1 v 0.2 0.2 l 0.1,0.1 0.1,0.1 h -0.1 v 0.3 0.1 0.1 0.2 l 0.1,0.2 0.8,0.1 0.1,0.1 0.1,0.2 v 0.2 l -0.1,0.2 -0.2,0.1 -0.3,0.1 -0.5,0.2 -0.4,0.4 -0.4,0.8 -0.2,0.7 -0.1,0.6 -0.4,2 -0.5,2 -0.6,1.3 -0.7,1.1 -0.6,1.5 -0.5,1.4 -0.1,0.3 -0.2,0.1 -0.2,0.1 -0.1,0.2 v 0.2 l -0.1,0.2 -0.1,0.2 -0.1,0.2 0.1,0.1 h 0.1 l 1,-0.1 0.2,-0.1 0.2,-0.2 -0.1,-0.5 0.1,-0.4 0.2,-0.2 0.1,0.4 0.2,0.6 0.3,0.2 0.3,-0.1 h 0.6 l 0.7,0.4 0.5,0.1 h 0.2 v -0.8 -1.1 l 0.6,-1.4 0.5,-1.3 -0.4,2.2 -0.3,2.1 -0.1,1.9 -0.1,2.3 -0.3,3.6 -0.1,2.4 v 0.3 0.5 h 0.5 l 0.8,-0.4 h 0.4 l 0.2,0.3 0.2,0.2 0.5,-0.2 2.4,-0.1 0.3,-0.1 h 0.6 0.3 l 2.2,-0.8 0.2,-0.1 0.2,-0.2 v -0.5 l -0.3,-0.8 -0.2,-0.7 v -0.9 l -0.2,-1.7 -0.2,-1.7 -0.1,-2.2 -0.3,-2.2 -0.3,-2 v -1.4 -1.4 -1.2 l 0.4,1.1 0.1,1 0.1,1.4 0.5,1.2 0.6,1.7 0.5,1.3 0.6,-0.1 0.5,-0.1 0.1,-0.6 0.5,-0.5 h 0.7 l 0.2,-0.3 0.2,-0.6 0.4,-0.3 0.6,-0.1 0.4,-0.1 0.3,0.5 0.2,0.5 0.1,0.3 0.2,0.2 0.1,0.2 h 0.2 l 1.5,-0.1 -0.2,-0.4 -0.2,-0.5 -0.2,-0.3 -0.3,-0.2 -0.5,-0.4 -0.6,-0.5 -1.4,-1.8 -0.8,-1.2 -0.5,-0.7 -0.4,-0.6 -0.6,-0.8 -0.6,-0.7 -0.4,-0.5 -0.2,-0.3 -0.2,-0.6 -0.7,-0.8 -0.5,-0.4 -0.6,-0.4 -0.4,-0.6 -0.3,-0.6 -1.1,-0.9 -0.5,-0.1 -0.6,-0.2 v -0.3 l 0.1,-0.2 0.3,-0.5 c 0.3,-0.8 0.6,-2.5 -0.3,-3.1"
       id="path14-3"
       style="clip-rule:evenodd;fill:#ffffff;fill-rule:evenodd" /><path
       id="polygon15-2"
       style="clip-rule:evenodd;fill:#ffffff;fill-rule:evenodd"
       class="st6"
       d="m 251.6,261.8 v -0.4 -0.2 h 0.2 0.1 V 261 l -0.1,-0.3 v -1.1 l 0.1,-1.2 0.2,-1.4 0.2,-1.3 0.2,-0.5 0.1,-0.1 0.5,0.6 0.6,0.9 0.3,0.8 0.4,0.6 0.4,1.6 0.3,1.5 0.1,-0.1 h 0.2 l 0.1,0.2 2.1,0.2 -0.2,-0.1 -0.1,-0.2 -0.1,-0.2 0.1,-0.1 h 0.2 l -0.3,-1 -0.4,-0.9 -0.6,-1.7 -0.8,-2.1 -0.3,-1.1 -0.1,-0.9 -0.2,-0.8 -0.3,-0.9 -0.3,-0.3 -0.2,-0.1 -3.8,0.6 -0.1,0.2 -0.1,0.4 -0.2,0.6 -0.1,0.7 0.1,0.6 v 0.9 l 0.1,0.7 v 0.3 l -0.1,1.6 v 1.5 l -0.2,3.2 z" /><path
       id="polygon16-2"
       style="clip-rule:evenodd;fill:#ffffff;fill-rule:evenodd"
       class="st6"
       d="m 244.5,245.1 h 0.3 0.3 l 0.4,0.1 0.4,0.1 0.5,0.2 0.9,0.3 1,0.4 -0.1,0.2 -0.1,0.2 0.3,0.1 0.7,0.2 0.6,0.3 0.2,0.3 v 0.8 l -0.1,1.3 -0.1,1.6 0.3,0.2 0.2,0.2 3.8,-0.6 0.3,-0.2 h 0.2 V 250 l -0.2,-1.1 v -0.7 l 0.3,-0.9 0.3,0.3 0.2,0.2 0.1,-0.2 v -0.2 l 0.2,0.1 0.3,0.3 0.5,0.4 h 0.7 l 0.6,-0.9 0.2,-0.6 0.3,-1.6 v -1.1 -0.5 l -0.1,-0.5 0.1,-0.3 -1,0.1 0.1,0.4 0.1,0.2 0.1,0.1 -0.1,0.9 -0.1,0.7 -0.1,0.3 -0.2,0.6 -0.4,0.8 -0.2,-0.1 -0.1,-0.1 0.1,-0.1 0.1,-0.1 -0.2,-0.2 -0.2,-0.2 -0.2,-0.1 -0.2,-0.1 -0.4,-0.2 h -0.3 l -0.3,-0.1 h -0.1 l -0.3,-0.1 -0.2,-0.1 -0.2,-0.2 h -0.1 l -0.1,-0.1 -0.2,-0.1 -0.2,-0.2 v -0.3 l 0.2,-0.1 h 0.2 l 0.2,-0.2 0.1,-0.1 v -0.3 l 0.1,-0.4 0.2,-0.4 v -0.4 -0.2 -0.1 l -0.1,-0.2 -0.1,-0.2 v -0.1 l -0.2,-0.2 -0.1,-0.1 -0.2,-0.1 -0.4,-0.2 h -0.2 -0.2 l -0.2,0.1 h -0.2 -0.3 -0.4 l -0.3,0.2 -0.2,0.2 -0.3,0.3 -0.2,0.3 0.1,0.2 v 0.2 l 0.1,0.2 v 0.2 l -0.1,0.2 -0.2,0.2 0.2,0.1 0.1,0.3 v 0.1 0.1 0.1 l 0.1,0.2 h 0.1 0.2 0.2 l 0.1,0.2 -0.1,0.2 -0.1,0.1 -0.2,0.1 h -0.4 l -0.4,0.1 h -0.3 -0.3 l -0.5,-0.1 -0.7,-0.1 h -0.1 v 0.1 h -0.2 l -0.2,-0.1 h -0.4 l -0.2,-0.1 -0.5,-0.1 h -0.8 -0.8 l -0.3,-0.1 -0.3,0.1 -0.4,-0.2 -0.4,-0.1 h -0.3 l -0.3,0.1 h -0.3 -0.3 -0.4 -0.3 l -0.1,0.1 0.1,0.1 h 0.2 0.2 l 0.1,0.1 h 0.3 l 0.2,0.1 0.2,0.1 0.2,0.1 v 0.3 l 0.2,0.1 h 0.4 l 0.3,-0.1 z" /><path
       id="polygon17-1"
       style="clip-rule:evenodd;fill:#ffffff;fill-rule:evenodd"
       class="st6"
       d="m 278,242.4 -0.1,-0.3 -0.2,-0.1 -1.5,0.1 0.3,0.1 0.3,0.3 0.2,0.2 0.2,0.1 0.2,0.1 0.1,0.2 1.1,0.9 1.5,0.9 0.9,-0.5 0.9,-0.6 0.3,0.2 0.4,1 0.3,0.8 v 0.7 1 0.9 1.1 l 0.2,1.1 0.3,0.3 h 0.2 l -0.1,0.4 v 0.4 l -0.3,1.8 -0.2,1.8 -0.5,1.8 -0.5,1.8 0.1,0.1 0.1,0.1 v 0.2 l -0.3,-0.1 h -0.6 l -0.2,0.3 0.2,0.1 0.2,0.1 2.4,0.3 0.2,-1.3 0.3,-1.3 0.1,-0.9 0.1,-0.9 0.4,-1.2 0.3,-1.1 0.1,0.3 0.2,0.4 v 0.5 l 0.2,0.5 0.9,1.3 0.9,1.3 0.6,1 0.4,0.8 -0.5,0.1 -0.5,0.3 -0.2,0.3 3.2,0.2 -0.1,-0.5 0.1,-0.3 0.2,-0.2 v -0.6 l -0.5,-0.5 -0.7,-1 -2.2,-2.9 -0.1,-0.5 v -0.9 -0.8 l 0.1,-0.6 v -1 l 0.1,-1.2 0.1,-1 0.2,-0.8 v -0.3 -0.5 -0.4 l 0.1,-0.4 v -0.3 l -0.1,-0.4 -0.4,-0.6 -0.3,-0.3 -0.3,-0.5 -0.2,-0.5 -0.3,-0.4 -0.3,-0.4 -0.3,-0.3 -0.4,-0.3 -0.3,-0.2 -0.4,-0.1 -0.3,-0.1 -0.2,-0.3 -0.1,-0.1 v -0.2 l 0.1,-0.1 0.3,-0.1 0.2,0.1 h 0.3 l 0.1,0.1 v 0.2 l 0.2,0.6 0.2,0.2 0.3,0.2 0.3,-0.2 v -0.1 h 0.3 l 0.2,-0.1 -0.1,-0.2 -0.2,-0.1 0.1,-0.1 0.1,-0.2 -0.1,-0.4 v -0.4 l -0.1,-0.4 -0.3,-0.7 -0.2,-0.2 -0.2,-0.1 -0.2,-0.2 -0.3,-0.4 -0.2,-0.4 -0.2,-0.3 -0.2,-0.1 h -0.2 l -0.2,-0.1 -0.2,-0.1 -0.4,-0.1 h -0.6 l -0.6,0.2 -0.4,0.2 -0.3,0.2 -0.4,0.1 -0.3,0.2 -0.3,0.1 -0.1,0.3 v 0.3 l 0.3,0.1 h 0.3 l 0.1,0.2 0.1,0.4 -0.1,0.3 -0.2,0.2 v 0.2 l 0.2,0.1 0.2,0.1 -0.1,0.2 v 0.1 h 0.1 l -0.1,0.1 0.1,0.2 v 0.1 l 0.2,0.1 h 0.6 0.1 v 0.2 H 282 l -0.4,0.2 -0.2,0.2 -0.3,0.4 -0.2,0.2 -0.1,0.3 -0.2,0.2 -0.1,0.2 -0.3,0.2 -0.2,0.1 -0.2,-0.1 -0.2,-0.1 -0.2,-0.1 -0.2,-0.1 -0.3,-0.1 h -0.3 l -0.4,-0.2 z" /><path
       class="st7"
       d="m 240.1,267.1 h 53.4 v -50.8 c -20.2,9.1 -39.6,4.6 -53.3,-4.1 z"
       id="path17-6"
       style="fill:none" /><path
       class="st8"
       d="m 293.3,267.1 h -53.2 v 77 c 28.1,-10.2 49.3,-33.6 53.2,-59 z"
       id="path18-8"
       style="clip-rule:evenodd;fill:#ffcc29;fill-rule:evenodd" /><path
       class="st0"
       d="m 270,213.5 c 9.8,0.2 19.7,-2.9 29.7,-10 l 1.7,-1.2 v 83.3 0.2 c -4.5,22.6 -18.4,42.3 -37.2,55.1 v 0 c -3.7,2.5 -7.5,4.7 -11.5,6.7 -4,1.9 -8.2,3.6 -12.5,4.9 h -0.1 -0.7 c -20.1,-8.4 -40.2,-22.9 -51.6,-42.1 -2.2,-3.7 -4.1,-7.7 -5.6,-11.8 -1.5,-4.2 -2.6,-8.5 -3.2,-12.8 v -83.5 l 1.7,1.1 c 9.3,6.4 18.8,9.7 28.6,9.8 9.8,0.1 19.8,-3.2 30.1,-9.8 l 0.6,-0.4 0.6,0.4 c 9.8,6.3 19.6,9.9 29.4,10.1 m 29.3,-7.1 c -9.8,6.6 -19.6,9.5 -29.3,9.2 -10.1,-0.2 -20.1,-3.8 -30,-10 -10.5,6.6 -20.7,9.8 -30.7,9.7 -9.6,0 -19,-3.1 -28.1,-9 v 79.1 c 0.6,4.2 1.6,8.4 3.1,12.4 1.4,4 3.3,7.8 5.4,11.4 11,18.7 30.6,32.8 50.2,41 4.1,-1.3 8,-2.9 11.8,-4.7 3.9,-1.9 7.7,-4.1 11.2,-6.5 v 0 c 18.4,-12.5 31.9,-31.6 36.3,-53.6 z"
       id="path19-5"
       style="fill:#3d4094" /><path
       class="st0"
       d="m 292.4,218 c -2,0.9 -4,1.6 -6.1,2.2 -2.5,0.8 -5,1.3 -7.6,1.7 -12.9,1.9 -25.8,-1.1 -38.6,-8.4 -2.3,1.3 -4.7,2.5 -7.1,3.5 -2.5,1.1 -5,2 -7.6,2.8 -12.3,3.7 -25.5,3 -37.3,-2.1 V 285 c 0.6,3.7 1.5,7.4 2.8,10.9 1.3,3.5 2.9,6.9 4.9,10.1 9.9,16.6 27.2,29.2 44.5,36.9 3.5,-1.2 6.9,-2.7 10.2,-4.4 3.4,-1.8 6.7,-3.8 9.8,-6 16.1,-11.3 28,-28.3 32.1,-47.8 z m 2.1,43.4 v 23.5 0.2 c -4.1,20.1 -16.4,37.6 -33,49.2 -3.2,2.3 -6.6,4.3 -10.1,6.1 -3.5,1.8 -7.2,3.4 -10.9,4.7 v 0 h -0.8 c -17.7,-7.8 -35.6,-20.9 -45.8,-38 -2,-3.3 -3.7,-6.8 -5.1,-10.5 -1.4,-3.7 -2.4,-7.5 -2.9,-11.4 v -70.8 l 1.5,0.7 c 11.7,5.5 25,6.4 37.3,2.7 2.5,-0.7 4.9,-1.6 7.3,-2.6 2.5,-1.1 4.9,-2.3 7.3,-3.7 v 0 h 0.1 l 0.5,-0.3 0.5,0.3 c 12.6,7.2 25.2,10.3 37.8,8.4 2.5,-0.4 4.9,-0.9 7.3,-1.6 2.5,-0.8 4.9,-1.7 7.3,-2.8 v 0 h 0.1 l 1.5,-0.7 0.1,46.6"
       id="path20-7"
       style="fill:#3d4094" /><path
       class="st9"
       d="m 264,305.4 h -0.1 v 0 c -0.8,-0.2 -1.6,-0.4 -2.5,-0.6 -0.9,-0.2 -1.7,-0.3 -2.6,-0.4 -4.3,-0.6 -8.6,-0.4 -12.8,0.8 l -0.7,-0.8 c 4.4,-1.3 9.1,-1.6 13.6,-0.9 0.9,0.1 1.8,0.3 2.6,0.4 0.9,0.2 1.6,0.3 2.4,0.5 z m 0,-1.2 c -6.1,-1.5 -12.8,-2.1 -18.9,-0.1 l -0.3,-0.4 c 6,-2 13.1,-1.6 19.2,0 z m 0,-0.7 c -2.4,-0.7 -4.9,-1.1 -7.4,-1.3 -4.1,-0.4 -8.2,0.1 -12.1,1.3 l -0.4,-0.4 c 6,-2.2 13.3,-1.7 19.8,0 z m 0,-0.6 v 0 0 c -6.4,-1.7 -13.9,-2.2 -20.1,0 l -0.4,-0.4 c 6.2,-2.3 14,-1.8 20.4,-0.1 z"
       id="path21-6"
       style="fill:#ffffff" /><path
       class="st9"
       d="m 264.4,305.4 v 0 0 c 0.9,-0.2 1.7,-0.4 2.6,-0.6 0.8,-0.2 1.7,-0.3 2.6,-0.4 4.3,-0.6 8.6,-0.4 12.8,0.8 l 0.7,-0.8 c -4.4,-1.3 -9.1,-1.6 -13.7,-0.9 -0.9,0.1 -1.8,0.3 -2.6,0.4 -0.9,0.2 -1.6,0.3 -2.3,0.5 v 1 z m 0,-1.2 c 6.1,-1.5 12.8,-2.1 18.9,-0.1 l 0.3,-0.4 c -6,-2 -13.1,-1.6 -19.2,0 z m 0,-0.7 c 2.4,-0.7 4.9,-1.1 7.4,-1.3 4.1,-0.4 8.2,0.1 12,1.3 l 0.3,-0.4 c -6,-2.2 -13.3,-1.7 -19.8,0 z m 0,-0.6 v 0 0 c 6.4,-1.7 13.9,-2.2 20,0 l 0.4,-0.4 c -6.2,-2.3 -14,-1.8 -20.4,-0.1 z"
       id="path22-1"
       style="fill:#ffffff" /><path
       class="st9"
       d="m 261.9,279.6 c 0.7,0.1 1.4,0.2 2,0.3 v 21.5 c -3.2,-0.8 -6.6,-1.2 -9.9,-1.2 -3.4,0 -6.8,0.4 -10.1,1.2 l 3.3,-21.1 c 4,-0.8 8.1,-1.1 12.2,-0.9 0.9,0 1.7,0.1 2.5,0.2"
       id="path23-8"
       style="fill:#ffffff" /><path
       class="st9"
       d="m 266.5,279.6 c -0.7,0.1 -1.4,0.2 -2,0.3 v 21.5 c 3.2,-0.8 6.5,-1.2 9.9,-1.2 3.4,0 6.8,0.4 10.1,1.2 l -3.3,-21.1 c -4,-0.8 -8.1,-1.1 -12.2,-0.9 -0.9,0 -1.7,0.1 -2.5,0.2"
       id="path24-9"
       style="fill:#ffffff" /><path
       class="st0"
       d="m 261.4,298.3 c -0.6,-0.1 -1.2,-0.2 -1.9,-0.4 -0.6,-0.1 -1.4,-0.2 -2.1,-0.3 -3.5,-0.4 -7.1,-0.2 -10.6,0.6 l 0.1,-0.5 c 3.5,-0.8 7,-1 10.6,-0.6 0.8,0.1 1.5,0.2 2.2,0.3 0.7,0.1 1.2,0.2 1.8,0.3 z m 0.2,-3.5 c -0.6,-0.1 -1.2,-0.2 -1.8,-0.3 -0.6,-0.1 -1.4,-0.2 -2.1,-0.3 -3.4,-0.4 -6.9,-0.2 -10.3,0.6 l 0.1,-0.5 c 3.4,-0.7 6.8,-0.9 10.3,-0.5 0.7,0.1 1.4,0.2 2.1,0.3 0.6,0.1 1.2,0.2 1.8,0.3 z m 0.1,-3.6 c -0.6,-0.1 -1.2,-0.2 -1.8,-0.3 -0.6,-0.1 -1.3,-0.2 -2,-0.3 -3.3,-0.4 -6.7,-0.2 -10,0.6 l 0.1,-0.5 c 3.3,-0.7 6.7,-0.9 10,-0.5 0.7,0.1 1.4,0.2 2.1,0.3 0.7,0.1 1.2,0.2 1.8,0.3 z m 0.1,-3 c -0.6,-0.1 -1.6,-0.4 -2.1,-0.5 -0.5,-0.1 -1.3,-0.2 -1.9,-0.2 -3.2,-0.4 -6.4,-0.2 -9.5,0.5 l 0.1,-0.5 c 3.1,-0.7 6.3,-0.8 9.4,-0.5 0.7,0.1 1.3,0.2 2,0.2 0.7,0.1 1.4,0.3 2.1,0.4 z m 0.2,-3 c -0.6,-0.1 -1.1,-0.2 -1.7,-0.3 -0.6,-0.1 -1.3,-0.2 -1.9,-0.2 -3.2,-0.4 -6.4,-0.2 -9.5,0.6 l 0.1,-0.5 c 3.1,-0.7 6.3,-0.9 9.5,-0.5 0.7,0.1 1.3,0.1 2,0.2 0.7,0.1 1.1,0.2 1.7,0.3 z m 0.1,-2.5 c -0.5,-0.1 -1,-0.2 -1.6,-0.3 -0.6,-0.1 -1.3,-0.2 -1.9,-0.2 -3.1,-0.3 -6.3,-0.2 -9.4,0.5 l 0.1,-0.5 c 3.1,-0.7 6.3,-0.8 9.4,-0.5 0.7,0.1 1.3,0.2 2,0.2 0.7,0.1 1,0.2 1.5,0.3 z"
       id="path25-2"
       style="fill:#3d4094" /><path
       class="st0"
       d="m 267.1,298.3 c 0.6,-0.1 1.2,-0.2 1.9,-0.4 0.6,-0.1 1.4,-0.2 2.1,-0.3 3.5,-0.4 7.1,-0.2 10.6,0.6 l -0.1,-0.5 c -3.5,-0.8 -7,-1 -10.6,-0.6 -0.8,0.1 -1.5,0.2 -2.2,0.3 -0.7,0.1 -1.2,0.2 -1.8,0.3 z m -0.2,-3.5 c 0.6,-0.1 1.2,-0.2 1.8,-0.3 0.6,-0.1 1.4,-0.2 2.1,-0.3 3.4,-0.4 6.9,-0.2 10.3,0.6 l -0.1,-0.5 c -3.4,-0.7 -6.9,-0.9 -10.3,-0.5 -0.7,0.1 -1.4,0.2 -2.1,0.3 -0.7,0.1 -1.2,0.2 -1.8,0.3 z m -0.1,-3.6 c 0.6,-0.1 1.2,-0.2 1.8,-0.3 0.6,-0.1 1.3,-0.2 2,-0.3 3.3,-0.4 6.7,-0.2 10,0.6 l -0.1,-0.5 c -3.3,-0.7 -6.7,-0.9 -10,-0.5 -0.7,0.1 -1.4,0.2 -2.1,0.3 -0.7,0.1 -1.2,0.2 -1.8,0.3 z m -0.2,-3 c 0.6,-0.1 1.6,-0.4 2.1,-0.5 0.5,-0.1 1.3,-0.2 1.9,-0.2 3.2,-0.4 6.4,-0.2 9.5,0.5 l -0.1,-0.5 c -3.1,-0.7 -6.3,-0.8 -9.4,-0.5 -0.7,0.1 -1.3,0.2 -2,0.2 -0.7,0.1 -1.4,0.3 -2.1,0.4 z m -0.1,-3 c 0.6,-0.1 1.1,-0.2 1.7,-0.3 0.6,-0.1 1.3,-0.2 1.9,-0.2 3.2,-0.4 6.4,-0.2 9.5,0.6 l -0.1,-0.5 c -3.1,-0.7 -6.3,-0.9 -9.5,-0.5 -0.7,0.1 -1.3,0.1 -2,0.2 -0.7,0.1 -1.1,0.2 -1.7,0.3 z m -0.1,-2.5 c 0.5,-0.1 1,-0.2 1.6,-0.3 0.6,-0.1 1.3,-0.2 1.9,-0.2 3.1,-0.4 6.3,-0.2 9.4,0.5 l -0.1,-0.5 c -3.1,-0.7 -6.3,-0.8 -9.4,-0.5 -0.7,0.1 -1.3,0.2 -2,0.2 -0.7,0.1 -1,0.2 -1.5,0.3 z"
       id="path26-7"
       style="fill:#3d4094" /><path
       class="st9"
       d="m 157.7,346.4 -1.4,3.7 1.4,0.6 c 0.7,0.3 1.4,0.5 2.2,0.6 0.4,0 0.8,-0.1 1.1,-0.3 0.3,-0.2 0.6,-0.5 0.7,-0.9 0.2,-0.4 0.2,-0.9 0,-1.3 -0.2,-0.4 -0.5,-0.8 -0.8,-1 -0.6,-0.3 -1.2,-0.6 -1.9,-0.8 z m -6.8,9.8 5,-13.1 4.2,1.6 c 1.1,0.4 2.1,0.8 3.1,1.4 0.7,0.5 1.2,1.2 1.4,2 0.2,0.9 0.2,1.9 -0.2,2.8 -0.2,0.7 -0.7,1.3 -1.2,1.9 -0.5,0.4 -1,0.7 -1.6,0.9 -0.5,0.1 -1.1,0.2 -1.6,0.1 -1,-0.2 -1.9,-0.5 -2.8,-0.9 l -1.7,-0.7 -1.9,4.9 z"
       id="path27-9"
       style="fill:#ffffff" /><path
       class="st9"
       d="m 170.5,357.7 -0.1,-5.5 -3.5,4.3 z m 3.1,6.9 -2.9,-1 -0.1,-3.4 -5.3,-1.8 -2.1,2.6 -2.8,-1 9.7,-11.5 2.8,1 z"
       id="path28-5"
       style="fill:#ffffff" /><path
       class="st9"
       d="m 180,358 2,0.6 c 0.8,0.3 1.6,0.5 2.5,0.5 0.3,0 0.7,-0.1 0.9,-0.3 0.3,-0.2 0.5,-0.6 0.6,-0.9 0.1,-0.4 0.1,-0.8 -0.1,-1.2 -0.2,-0.4 -0.5,-0.7 -0.9,-0.8 -0.2,-0.1 -0.9,-0.3 -2,-0.6 l -2.1,-0.6 z m -4.9,7 3.9,-13.5 5.7,1.6 c 1.1,0.3 2.1,0.7 3,1.3 0.6,0.4 1,1 1.2,1.7 0.2,0.7 0.2,1.5 0,2.3 -0.2,0.9 -0.8,1.7 -1.6,2.2 -0.9,0.5 -2,0.7 -3,0.5 0.4,0.5 0.8,1 1.1,1.5 0.4,0.8 0.7,1.7 0.9,2.6 l 0.9,3.1 -3.2,-0.9 -1.1,-3.5 c -0.2,-0.8 -0.5,-1.6 -0.9,-2.4 -0.2,-0.3 -0.4,-0.6 -0.6,-0.8 -0.4,-0.2 -0.9,-0.4 -1.3,-0.5 l -0.6,-0.2 -1.6,5.6 z"
       id="path29-4"
       style="fill:#ffffff" /><path
       class="st9"
       d="m 191.5,355 2.8,0.5 -1.4,7.4 c -0.2,0.8 -0.3,1.5 -0.3,2.3 0,0.6 0.2,1.1 0.6,1.5 0.5,0.5 1.1,0.8 1.7,0.9 0.6,0.2 1.3,0.1 1.9,-0.1 0.5,-0.2 0.8,-0.6 1,-1 0.2,-0.8 0.4,-1.5 0.6,-2.3 l 1.5,-7.6 2.8,0.5 -1.4,7.2 c -0.2,1.2 -0.5,2.3 -0.9,3.5 -0.3,0.6 -0.7,1.2 -1.2,1.6 -0.5,0.4 -1.2,0.7 -1.8,0.8 -0.9,0.1 -1.8,0.1 -2.7,-0.1 -1,-0.1 -2,-0.5 -2.9,-1 -0.6,-0.4 -1,-0.9 -1.4,-1.5 -0.3,-0.5 -0.5,-1.1 -0.5,-1.7 0,-1.2 0.1,-2.4 0.4,-3.5 z"
       id="path30-3"
       style="fill:#ffffff" /><path
       id="polygon30-1"
       style="fill:#ffffff"
       class="st9"
       d="m 212.4,373 -9.7,-1.4 1.9,-13.8 2.8,0.4 -1.6,11.5 7,0.9 z" /><path
       class="st9"
       d="m 220.6,359.9 2.8,0.2 -0.7,7.5 c -0.1,0.8 -0.1,1.6 -0.1,2.3 0.1,0.6 0.3,1.1 0.7,1.5 0.5,0.4 1.2,0.7 1.8,0.7 0.6,0.1 1.3,0 1.9,-0.3 0.4,-0.3 0.7,-0.7 0.8,-1.2 0.2,-0.8 0.3,-1.6 0.3,-2.3 l 0.7,-7.7 2.8,0.2 -0.6,7.3 c -0.1,1.2 -0.3,2.4 -0.5,3.5 -0.2,0.6 -0.5,1.2 -1,1.7 -0.5,0.5 -1.1,0.8 -1.7,1 -0.9,0.2 -1.8,0.3 -2.7,0.2 -1,0 -2.1,-0.3 -3,-0.7 -0.6,-0.3 -1.1,-0.8 -1.5,-1.3 -0.3,-0.5 -0.6,-1 -0.7,-1.6 -0.1,-1.2 -0.1,-2.4 0,-3.6 z"
       id="path31-2"
       style="fill:#ffffff" /><path
       id="polygon31-3"
       style="fill:#ffffff"
       class="st9"
       d="m 242.1,370.5 v -9.4 h 2.6 v 14 h -2.8 l -5.7,-9.1 v 9.1 h -2.6 v -14 h 2.8 z" /><path
       id="rect31-3"
       style="fill:#ffffff"
       class="st9"
       transform="matrix(0.9994,-0.0348995,0.0348995,0.9994,-12.6852,8.907)"
       d="m 247.39999,360.79999 h 2.8 v 14 h -2.8 z" /><path
       id="polygon32-4"
       style="fill:#ffffff"
       class="st9"
       d="m 251,360.7 3,-0.1 4.1,10.1 2.9,-10.5 3,-0.2 -4.3,14.3 -3,0.2 z" /><path
       id="polygon33-1"
       style="fill:#ffffff"
       class="st9"
       d="m 267.9,364.8 7,-0.9 0.3,2.3 -7,0.9 0.5,3.8 7.8,-1 0.2,2.4 -10.5,1.3 -1.7,-13.9 10.3,-1.3 0.3,2.4 -7.5,0.9 z" /><path
       class="st9"
       d="m 280.3,363 2.1,-0.4 c 0.8,-0.1 1.7,-0.3 2.5,-0.7 0.3,-0.2 0.5,-0.4 0.7,-0.7 0.1,-0.3 0.2,-0.7 0.1,-1.1 -0.1,-0.4 -0.3,-0.8 -0.6,-1 -0.3,-0.2 -0.7,-0.4 -1.1,-0.3 -0.2,0 -0.9,0.1 -2,0.3 l -2.2,0.4 z m -1.3,8.5 -2.7,-13.7 5.8,-1.1 c 1.1,-0.3 2.2,-0.3 3.3,-0.2 0.7,0.1 1.4,0.5 1.9,1 0.5,0.6 0.9,1.3 1,2 0.2,0.9 0.1,1.9 -0.4,2.7 -0.6,0.9 -1.5,1.5 -2.5,1.8 0.6,0.2 1.2,0.5 1.7,0.9 0.7,0.6 1.4,1.2 2,1.9 l 2.2,2.4 -3.3,0.6 -2.6,-2.6 c -0.6,-0.6 -1.2,-1.2 -1.8,-1.7 -0.3,-0.2 -0.6,-0.4 -1,-0.4 -0.5,0 -1,0 -1.4,0.1 l -0.6,0.1 1.1,5.7 z"
       id="path33-1"
       style="fill:#ffffff" /><path
       class="st9"
       d="m 290.9,364.3 2.6,-0.9 c 0.3,0.7 0.8,1.3 1.5,1.7 0.7,0.3 1.4,0.4 2.2,0.1 0.7,-0.1 1.4,-0.5 1.8,-1.1 0.3,-0.4 0.5,-1 0.4,-1.5 -0.1,-0.3 -0.2,-0.6 -0.5,-0.8 -0.3,-0.2 -0.7,-0.3 -1.1,-0.3 -0.3,0 -1.1,0 -2.3,0 -1.2,0.1 -2.3,-0.1 -3.4,-0.6 -1,-0.5 -1.7,-1.4 -1.9,-2.4 -0.2,-0.7 -0.1,-1.4 0.1,-2.1 0.3,-0.7 0.7,-1.3 1.3,-1.8 0.8,-0.5 1.6,-0.9 2.6,-1.1 1.4,-0.4 2.8,-0.4 4.1,0.2 1.1,0.5 1.8,1.5 2.1,2.7 l -2.7,0.8 c -0.2,-0.6 -0.6,-1 -1.1,-1.3 -0.6,-0.2 -1.3,-0.2 -1.9,0 -0.7,0.1 -1.3,0.5 -1.8,1 -0.2,0.3 -0.3,0.6 -0.2,1 0.1,0.3 0.3,0.6 0.6,0.7 0.9,0.3 1.8,0.4 2.7,0.3 1.1,0 2.2,0 3.2,0.2 0.7,0.2 1.3,0.5 1.9,1 0.5,0.6 0.9,1.2 1.1,2 0.2,0.8 0.2,1.6 -0.1,2.4 -0.3,0.8 -0.8,1.5 -1.4,2 -0.9,0.6 -1.8,1 -2.8,1.2 -1.4,0.4 -2.9,0.4 -4.2,-0.2 -1.4,-0.8 -2.3,-1.9 -2.8,-3.2"
       id="path34-3"
       style="fill:#ffffff" /><path
       id="rect34-8"
       style="fill:#ffffff"
       class="st9"
       transform="matrix(0.9511,-0.309,0.309,0.9511,-95.7391,111.6076)"
       d="m 303,351 h 2.8 v 14 H 303 Z" /><path
       id="polygon34-7"
       style="fill:#ffffff"
       class="st9"
       d="m 309.8,351.3 -3.9,1.3 -0.8,-2.2 10.5,-3.6 0.8,2.2 -3.9,1.4 3.8,10.9 -2.7,1 z" /><path
       id="polygon35-4"
       style="fill:#ffffff"
       class="st9"
       d="m 325,342.7 3,-1.2 -1.6,9.5 2.3,5.4 -2.6,1.1 -2.3,-5.5 -7.9,-5.4 3.1,-1.3 5.2,3.8 z" /><path
       class="st5"
       d="m 187,267.1 h 53.2 v 77 c -28.1,-11.4 -49.3,-33.6 -53.2,-59 z"
       id="path35-2"
       style="clip-rule:evenodd;fill:#e31e24;fill-rule:evenodd" /><path
       class="st8"
       d="m 240.1,267.1 h -53.3 v -50.8 c 20.2,9.1 39.6,4.6 53.3,-4.1 z"
       id="path36-7"
       style="clip-rule:evenodd;fill:#ffcc29;fill-rule:evenodd" /><path
       class="st6"
       d="m 216.7,309.3 c 13.4,0.4 14.9,-9.9 13.8,-19.4 1.5,-0.8 3.2,-1.3 4.9,-1.4 2.3,17.1 -9.5,23.9 -18.7,20.8 m 0,0 c -13.4,0.4 -14.9,-9.9 -13.8,-19.4 -1.5,-0.8 -3.2,-1.3 -4.9,-1.4 -2.3,17.1 9.4,23.9 18.7,20.8 m 0.8,0.9 v 5.5 h -1.2 v -5.5 z m -0.7,-25.9 c -1.3,-1.4 -2.8,-2.6 -4.3,-3.7 1.2,-3 2.9,-5.7 5.1,-8 2.3,1.8 4.1,4.2 5.3,6.9 -2.2,1.4 -4.2,3 -6.1,4.8 z m 9.9,-5.7 c -3.4,1.6 -6.5,3.8 -9.2,6.5 7.4,8.2 10,17.1 0.8,23.5 15.7,0.2 11.6,-20.3 8.4,-30 z m -20.2,-0.3 c 8.7,3.7 26.1,20.9 10.7,30.1 -18.2,2.1 -14.1,-20 -10.7,-30.1 z"
       id="path37-7"
       style="clip-rule:evenodd;fill:#ffffff;fill-rule:evenodd" /><path
       class="st6"
       d="m 231.1,254.5 c -4,5 -14.7,4.2 -17.8,1.2 -3.2,3.1 -13.5,3.5 -17.7,-1.2 6.1,14.2 28.7,14.4 35.5,0"
       id="path38-9"
       style="clip-rule:evenodd;fill:#ffffff;fill-rule:evenodd" /><path
       id="polygon38-3"
       style="clip-rule:evenodd;fill:#ffffff;fill-rule:evenodd"
       class="st6"
       d="m 215.8,239.2 13.6,-4.9 -13.9,4 10.4,-10 -11,9.3 5.4,-13.3 -6.3,12.9 -0.5,-14.4 -0.5,14.4 -6.2,-12.9 5.4,13.3 -11.1,-9.3 10.4,10 -13.8,-4 13.5,4.9 -14.2,2 14.3,-1 -12.2,7.6 12.7,-6.8 -8.1,12 8.9,-11.4 -2.5,14.2 3.4,-14 3.5,14 -2.5,-14.2 8.8,11.4 -8,-12 12.7,6.8 -12.3,-7.6 14.4,1 z" /><path
       class="st6"
       d="m 213.3,255.3 c 0.9,-1.2 2.3,-1.8 2.3,-4.5 0,-3.2 -1.8,-7.8 -2.2,-11.2 -0.6,3.4 -2.1,7.8 -2.2,11.1 0,2.3 1,3.2 2.1,4.6"
       id="path39-1"
       style="clip-rule:evenodd;fill:#ffffff;fill-rule:evenodd" /><path
       class="st10"
       d="m 752.2,370.2 -0.8,-6.9 c 1.4,0.4 2.8,0.6 4.2,0.6 1.4,0.1 2.7,-0.2 3.9,-0.8 1,-0.5 1.8,-1.3 2.4,-2.3 0.9,-1.7 1.7,-3.6 2.2,-5.5 0.1,-0.4 0.4,-1 0.7,-1.8 L 748.4,310 h 7.9 l 9,25.1 c 1.2,3.2 2.2,6.5 3.1,10 0.8,-3.3 1.8,-6.6 3,-9.9 l 9.3,-25.3 h 7.3 l -16.5,44.2 c -1.2,3.4 -2.6,6.6 -4.1,9.8 -1,2.1 -2.6,3.9 -4.5,5.3 -1.8,1.2 -3.9,1.7 -6,1.7 -1.6,0.1 -3.2,-0.2 -4.7,-0.7 m -7.1,-23.3 1.1,6.5 c -1.8,0.4 -3.7,0.6 -5.5,0.7 -2.1,0.1 -4.3,-0.3 -6.2,-1.3 -1.4,-0.7 -2.5,-1.9 -3.1,-3.3 -0.6,-1.4 -0.9,-4.3 -0.9,-8.7 v -25 H 725 v -5.7 h 5.4 v -10.7 l 7.3,-4.4 v 15.1 h 7.4 v 5.7 h -7.4 v 25.4 c -0.1,1.3 0,2.7 0.4,4 0.3,0.6 0.7,1.1 1.3,1.4 0.8,0.4 1.6,0.6 2.5,0.5 1,0 2.1,0 3.2,-0.2 z m -34.9,6.6 v -43.4 h 7.3 v 43.4 z m 0,-51.4 v -8.5 h 7.3 v 8.5 z m -45,38.4 7.3,-1.1 c 0.2,2.6 1.5,5 3.4,6.7 1.9,1.5 4.5,2.3 7.8,2.3 3.3,0 5.9,-0.7 7.5,-2.1 1.5,-1.1 2.4,-2.9 2.5,-4.8 0,-1.6 -0.8,-3.1 -2.2,-3.9 -1,-0.7 -3.5,-1.5 -7.5,-2.5 -3.8,-0.8 -7.6,-2 -11.2,-3.5 -3.9,-1.7 -6.4,-5.7 -6.3,-9.9 0,-1.9 0.4,-3.7 1.3,-5.4 0.9,-1.6 2.1,-3 3.6,-4.1 1.4,-1 3,-1.7 4.7,-2.1 2.1,-0.6 4.2,-0.9 6.3,-0.9 3.1,-0.1 6.1,0.4 9,1.5 2.3,0.7 4.2,2.1 5.7,4 1.3,2 2.1,4.3 2.4,6.7 l -7.2,1 c -0.2,-2 -1.3,-3.9 -2.8,-5.2 -1.9,-1.4 -4.3,-2 -6.6,-1.9 -3.4,0 -5.8,0.6 -7.2,1.7 -1.3,0.9 -2.1,2.3 -2.2,3.9 0,0.9 0.3,1.8 0.9,2.6 0.7,0.9 1.7,1.6 2.8,2 0.7,0.3 2.9,0.9 6.5,1.9 3.7,0.9 7.3,2 10.9,3.4 2,0.8 3.6,2.1 4.8,3.9 1.2,1.9 1.8,4.1 1.8,6.3 0,2.5 -0.8,4.9 -2.1,6.9 -1.5,2.2 -3.7,4 -6.2,5 -2.9,1.2 -6,1.8 -9.1,1.8 -5.6,0 -9.9,-1.2 -12.9,-3.5 -3,-2.6 -4.9,-6.1 -5.7,-10.7 z m -25.3,13 v -43.4 h 6.6 v 6.6 c 1.7,-3.1 3.2,-5.1 4.7,-6.1 1.4,-1 3,-1.5 4.7,-1.5 2.7,0.1 5.3,0.9 7.6,2.4 l -2.5,6.8 c -1.6,-1 -3.5,-1.6 -5.4,-1.6 -1.6,0 -3.1,0.5 -4.3,1.5 -1.3,1 -2.3,2.4 -2.7,4 -0.9,2.8 -1.3,5.7 -1.2,8.6 v 22.8 h -7.5 z M 598.8,327.6 H 623 c -0.3,-3.6 -1.2,-6.4 -2.8,-8.2 -2.2,-2.8 -5.6,-4.3 -9.1,-4.2 -3.2,-0.1 -6.3,1.1 -8.5,3.4 -2.3,2.4 -3.7,5.6 -3.8,9 z m 24.1,11.9 7.6,1 c -1,4.1 -3.3,7.8 -6.6,10.4 -3.2,2.4 -7.4,3.6 -12.4,3.6 -6.3,0 -11.4,-1.9 -15.1,-5.8 -3.7,-3.9 -5.6,-9.4 -5.6,-16.4 0,-7.3 1.9,-13 5.6,-17 3.8,-4 9.1,-6.2 14.6,-6 5.4,-0.2 10.5,2 14.2,5.9 3.7,4 5.5,9.5 5.5,16.7 0,0.5 0,1.1 0,2 h -32.4 c 0.3,4.8 1.6,8.4 4,10.9 2.3,2.5 5.6,3.9 9,3.8 2.5,0.1 4.9,-0.7 6.9,-2.1 2.3,-1.9 3.9,-4.3 4.7,-7 z m -59.7,14 -16.5,-43.4 h 7.8 l 9.3,26 c 1,2.8 1.9,5.7 2.8,8.7 0.7,-2.3 1.6,-5 2.7,-8.2 l 9.6,-26.5 h 7.5 L 570,353.4 h -6.8 z m -30.8,0 v -43.4 h 7.4 v 43.4 z m 0,-51.4 v -8.5 h 7.4 v 8.5 z m -46.8,51.4 v -43.4 h 6.6 v 6.2 c 3.2,-4.8 7.8,-7.2 13.8,-7.2 2.5,0 4.9,0.5 7.2,1.4 1.9,0.8 3.7,2 4.9,3.7 1.1,1.6 1.9,3.5 2.3,5.4 0.3,2.4 0.5,4.8 0.4,7.1 v 26.7 h -7.3 V 327 c 0.1,-2.3 -0.2,-4.5 -0.9,-6.7 -0.6,-1.5 -1.6,-2.7 -3,-3.5 -1.6,-0.9 -3.3,-1.4 -5.1,-1.3 -3,0 -5.9,1 -8.1,3 -2.3,2 -3.4,5.8 -3.4,11.3 v 23.7 z m -20.4,-59.9 h 7.9 v 34.6 c 0,6 -0.7,10.8 -2,14.3 -1.4,3.6 -4,6.7 -7.4,8.6 -3.5,2.2 -8.2,3.3 -14,3.3 -5.6,0 -10.2,-1 -13.8,-2.9 -3.5,-1.8 -6.2,-4.8 -7.6,-8.4 -1.5,-3.7 -2.3,-8.7 -2.3,-15 v -34.6 h 7.9 v 34.6 c 0,5.2 0.5,9 1.5,11.5 0.9,2.4 2.7,4.5 5,5.7 2.7,1.4 5.6,2.1 8.6,2 5.8,0 10,-1.3 12.5,-4 2.5,-2.7 3.7,-7.7 3.7,-15.2 z"
       id="path40-9"
       style="fill:#ee242b" /><path
       class="st11"
       d="m 700.1,206.9 h 17.8 v 63.8 h -17.8 z m -6.9,63.8 h -16.5 v -7.5 c -2,2.7 -4.5,4.9 -7.5,6.6 -2.9,1.4 -6.1,2.1 -9.2,2 -4.9,0 -8.7,-1.5 -11.5,-4.4 -2.8,-2.9 -4.1,-7.4 -4.1,-13.5 v -29.4 h 17.8 v 25.4 c 0,2.9 0.5,5 1.6,6.2 1.2,1.3 2.8,1.9 4.5,1.8 2,0 3.9,-0.9 5.2,-2.4 1.3,-1.6 2,-4.5 2,-8.8 v -22.2 h 17.7 z m -86.5,-46.2 h 16.6 v 7.6 c 1.6,-3.3 3.2,-5.5 5,-6.8 1.8,-1.3 4,-1.9 6.3,-1.9 3,0.1 6,0.9 8.6,2.4 l -5.5,12.6 c -1.6,-0.8 -3.3,-1.2 -5,-1.3 -2.2,-0.1 -4.2,1 -5.4,2.9 -1.7,2.7 -2.6,7.7 -2.6,15.1 v 15.5 h -17.8 v -46.1 z m -23.6,24.3 c -2.4,0.9 -5,1.6 -7.6,2.3 -3.6,1 -5.9,1.9 -6.8,2.8 -1.8,1.7 -2,4.6 -0.3,6.4 0.1,0.1 0.2,0.2 0.3,0.3 1.2,1 2.7,1.4 4.3,1.3 1.9,0 3.8,-0.5 5.5,-1.4 1.5,-0.8 2.8,-2 3.6,-3.5 0.8,-1.7 1.1,-3.5 1,-5.4 z m -15.4,-9.4 -16.9,-1.8 c 0.4,-2.5 1.4,-4.9 2.8,-7 1.4,-1.9 3.1,-3.4 5.2,-4.4 2.1,-1.1 4.4,-1.8 6.7,-2.1 3,-0.5 6.1,-0.8 9.2,-0.7 4.3,-0.1 8.5,0.2 12.8,0.9 3,0.5 5.8,1.8 8,3.7 1.6,1.5 2.9,3.4 3.6,5.5 0.8,2.2 1.3,4.5 1.3,6.9 v 20.4 c 0,1.7 0.1,3.4 0.4,5.1 0.4,1.6 1,3.2 1.8,4.7 H 586 c -0.5,-0.9 -0.9,-1.8 -1.3,-2.7 -0.3,-1 -0.5,-1.9 -0.6,-2.9 -2,2 -4.3,3.6 -6.9,4.8 -3.5,1.3 -7.2,2 -10.9,1.9 -5.5,0 -9.7,-1.3 -12.5,-3.8 -2.8,-2.3 -4.3,-5.8 -4.3,-9.4 -0.1,-3.2 1,-6.3 3.1,-8.7 2.1,-2.3 5.9,-4 11.4,-5 6.7,-1.3 11,-2.3 12.9,-2.8 2.1,-0.6 4.2,-1.3 6.2,-2.1 0,-2.2 -0.4,-3.7 -1.3,-4.6 -0.9,-0.9 -2.5,-1.3 -4.8,-1.3 -2.9,0 -5.1,0.5 -6.5,1.4 -1.4,1 -2.3,2.4 -2.8,4 z m -53.5,-5.3 h 4.8 c 3.8,0 6.5,-0.6 8,-2 1.5,-1.3 2.3,-3.1 2.3,-5.1 0,-1.9 -0.7,-3.7 -2,-5.1 -1.3,-1.4 -3.8,-2.1 -7.5,-2.1 h -5.6 z m -19.8,-27.2 h 32.8 c 7.1,0 12.5,1.7 16,5.1 3.5,3.4 5.3,8.2 5.3,14.5 0,6.5 -1.9,11.5 -5.8,15.1 -3.9,3.6 -9.8,5.4 -17.7,5.4 h -10.8 v 23.7 h -19.8 z"
       id="path41-8"
       style="fill:#1d1d1b;stroke:#000000;stroke-miterlimit:10" /><path
       class="st11"
       d="m 730.7,210.3 h 1.5 c 0.5,0.1 1,-0.1 1.5,-0.3 0.3,-0.2 0.4,-0.5 0.4,-0.9 0,-0.2 -0.1,-0.4 -0.2,-0.6 -0.1,-0.2 -0.3,-0.3 -0.5,-0.4 -0.4,-0.1 -0.8,-0.2 -1.3,-0.1 h -1.4 z m -1.3,4.4 V 207 h 2.7 c 0.7,0 1.3,0 2,0.2 1,0.3 1.6,1.5 1.3,2.5 -0.1,0.3 -0.3,0.6 -0.5,0.8 -0.4,0.4 -1,0.7 -1.6,0.7 0.2,0.1 0.5,0.2 0.7,0.4 0.4,0.5 0.8,1 1.2,1.5 l 1,1.5 h -1.5 l -0.7,-1.2 c -0.3,-0.7 -0.8,-1.3 -1.3,-1.8 -0.3,-0.2 -0.6,-0.3 -1,-0.3 H 731 v 3.3 h -1.6 z m 3.2,-10 c -1.1,0 -2.1,0.3 -3,0.8 -1,0.5 -1.7,1.3 -2.2,2.2 -1.1,1.9 -1.1,4.1 0,6 0.5,0.9 1.3,1.7 2.2,2.2 1.9,1.1 4.1,1.1 6,0 0.9,-0.5 1.7,-1.3 2.2,-2.2 1.1,-1.9 1.1,-4.1 0,-6 -0.5,-0.9 -1.3,-1.7 -2.3,-2.2 -0.9,-0.5 -1.9,-0.8 -2.9,-0.8 z m 0,-1.2 c 1.2,0 2.5,0.3 3.5,0.9 1.1,0.6 2.1,1.5 2.7,2.7 1.3,2.2 1.3,5 0,7.2 -0.6,1.1 -1.5,2.1 -2.7,2.7 -2.2,1.3 -4.9,1.3 -7.2,0 -1.1,-0.6 -2.1,-1.5 -2.7,-2.7 -0.6,-1.1 -1,-2.3 -1,-3.6 0,-1.3 0.4,-2.5 1,-3.6 0.6,-1.1 1.6,-2.1 2.7,-2.7 1.2,-0.6 2.4,-0.9 3.7,-0.9 z"
       id="path42-6"
       style="fill:#1d1d1b;stroke:#000000;stroke-miterlimit:10" /></g><path
     id="rect43-5"
     style="stroke-width:99.5519"
     d="m 194417.66,16088.478 h 143.09 v 9023.425 h -143.09 z" /><g
     id="g44-0"
     transform="matrix(128.29617,0,0,128.29617,167673.18,-55972.614)"><path
       id="path44-2"
       style="fill:#e73649;stroke-width:0.6"
       d="M 439.0633,597.25525 A 24.213051,24.213051 0 0 1 414.85025,621.4683 24.213051,24.213051 0 0 1 390.6372,597.25525 24.213051,24.213051 0 0 1 414.85025,573.0422 24.213051,24.213051 0 0 1 439.0633,597.25525 Z" /><path
       d="m 419.34286,606.00872 h -9.19916 l -1.26578,4.31434 h -8.25428 l 9.82313,-26.1356 h 8.80695 l 9.82314,26.1356 h -8.4504 z m -1.69364,-5.65142 -2.88811,-9.39527 -2.87028,9.39527 z"
       id="text44-8"
       style="font-weight:900;font-size:36.5114px;font-family:Arial;-inkscape-font-specification:'Arial, Heavy';fill:#ffffff"
       aria-label="A" /></g><path
     d="m 197141.35,18387.692 h 1306.3 l 1704.67,2504.509 v -2504.509 h 1318.65 v 4527.263 h -1318.65 l -1695.41,-2485.98 v 2485.98 h -1315.56 z m 7982.93,3779.925 h -1593.5 l -219.26,747.338 h -1429.82 l 1701.58,-4527.263 h 1525.56 l 1701.58,4527.263 h -1463.79 z m -293.38,-978.951 -500.28,-1627.468 -497.2,1627.468 z m 5212.84,978.951 h -1593.5 l -219.26,747.338 h -1429.82 l 1701.58,-4527.263 h 1525.56 l 1701.58,4527.263 h -1463.79 z m -293.38,-978.951 -500.28,-1627.468 -497.2,1627.468 z m 5327.1,-123.527 1226.01,370.581 q -123.53,515.725 -389.11,861.6 -265.58,345.876 -660.87,521.902 -392.2,176.026 -1000.57,176.026 -738.07,0 -1207.47,-213.084 -466.32,-216.173 -806.02,-756.603 -339.7,-540.43 -339.7,-1383.502 0,-1124.095 596.02,-1726.289 599.11,-605.282 1692.32,-605.282 855.42,0 1343.36,345.875 491.01,345.876 728.8,1062.332 l -1235.27,274.848 q -64.85,-206.908 -135.88,-302.641 -117.35,-160.585 -287.2,-247.054 -169.84,-86.469 -379.84,-86.469 -475.58,0 -728.81,382.933 -191.47,284.112 -191.47,892.483 0,753.514 228.53,1034.538 228.52,277.935 642.34,277.935 401.46,0 605.28,-225.436 206.91,-225.437 299.55,-654.693 z"
     id="text43-0"
     style="font-weight:900;font-size:6324.58px;font-family:Arial;-inkscape-font-specification:'Arial, Heavy';stroke-width:527.049"
     aria-label="NAAC   " /><path
     d="m 223282.68,20141.257 h 1217.04 v -1223.39 h 1026.38 v 1223.39 h 1223.39 v 1029.555 h -1223.39 v 1217.034 h -1026.38 v -1217.034 h -1217.04 z m 3597.47,0 h 1217.03 v -1223.39 h 1026.38 v 1223.39 h 1223.39 v 1029.555 h -1223.39 v 1217.034 h -1026.38 v -1217.034 h -1217.03 z"
     id="text45-4"
     style="font-weight:900;font-size:6507.8px;font-family:Arial;-inkscape-font-specification:'Arial, Heavy';letter-spacing:-698.701px;fill:#1a1a1a;stroke-width:178.24"
     aria-label="++" /></g></svg>
